<svg width="382" height="324" viewBox="0 0 382 324" fill="none" xmlns="http://www.w3.org/2000/svg">
<rect x="0.5" y="60.5" width="381" height="263" rx="19.5" fill="#65504B" stroke="#65504B"/>
<mask id="path-2-outside-1_1012_752" maskUnits="userSpaceOnUse" x="148" y="182" width="86" height="21" fill="black">
<rect fill="white" x="148" y="182" width="86" height="21"/>
<path d="M149.7 201V184.08H157.044C158.292 184.08 159.348 184.288 160.212 184.704C161.076 185.12 161.732 185.72 162.18 186.504C162.628 187.288 162.852 188.24 162.852 189.36C162.852 190.464 162.628 191.416 162.18 192.216C161.732 193 161.076 193.608 160.212 194.04C159.348 194.456 158.292 194.664 157.044 194.664H152.772V201H149.7ZM152.772 192.24H156.564C157.652 192.24 158.476 192 159.036 191.52C159.596 191.024 159.876 190.304 159.876 189.36C159.876 188.416 159.596 187.704 159.036 187.224C158.476 186.744 157.652 186.504 156.564 186.504H152.772V192.24ZM165.596 201V184.08H168.668V191.136H177.38V184.08H180.452V201H177.38V193.704H168.668V201H165.596ZM191.983 201.24C190.751 201.24 189.631 201.04 188.623 200.64C187.631 200.224 186.775 199.632 186.055 198.864C185.351 198.096 184.807 197.176 184.423 196.104C184.039 195.032 183.847 193.84 183.847 192.528C183.847 191.2 184.039 190.008 184.423 188.952C184.807 187.88 185.351 186.968 186.055 186.216C186.775 185.448 187.631 184.864 188.623 184.464C189.631 184.048 190.751 183.84 191.983 183.84C193.215 183.84 194.327 184.048 195.319 184.464C196.327 184.864 197.183 185.44 197.887 186.192C198.607 186.944 199.159 187.856 199.543 188.928C199.927 189.984 200.119 191.176 200.119 192.504C200.119 193.832 199.927 195.032 199.543 196.104C199.159 197.176 198.607 198.096 197.887 198.864C197.183 199.632 196.327 200.224 195.319 200.64C194.327 201.04 193.215 201.24 191.983 201.24ZM191.983 198.6C193.023 198.6 193.903 198.36 194.623 197.88C195.359 197.4 195.919 196.704 196.303 195.792C196.703 194.88 196.903 193.792 196.903 192.528C196.903 191.248 196.711 190.16 196.327 189.264C195.943 188.352 195.383 187.664 194.647 187.2C193.911 186.72 193.023 186.48 191.983 186.48C190.959 186.48 190.079 186.72 189.343 187.2C188.607 187.664 188.039 188.352 187.639 189.264C187.255 190.16 187.063 191.248 187.063 192.528C187.063 193.792 187.255 194.88 187.639 195.792C188.039 196.704 188.607 197.4 189.343 197.88C190.079 198.36 190.959 198.6 191.983 198.6ZM203.483 201V184.08H205.787L215.507 196.704H214.883V184.08H217.739V201H215.459L205.739 188.352H206.339V201H203.483ZM221.676 201V184.08H232.932V186.528H224.628V191.184H232.404V193.632H224.628V198.552H232.932V201H221.676Z"/>
</mask>
<path d="M149.7 201V184.08H157.044C158.292 184.08 159.348 184.288 160.212 184.704C161.076 185.12 161.732 185.72 162.18 186.504C162.628 187.288 162.852 188.24 162.852 189.36C162.852 190.464 162.628 191.416 162.18 192.216C161.732 193 161.076 193.608 160.212 194.04C159.348 194.456 158.292 194.664 157.044 194.664H152.772V201H149.7ZM152.772 192.24H156.564C157.652 192.24 158.476 192 159.036 191.52C159.596 191.024 159.876 190.304 159.876 189.36C159.876 188.416 159.596 187.704 159.036 187.224C158.476 186.744 157.652 186.504 156.564 186.504H152.772V192.24ZM165.596 201V184.08H168.668V191.136H177.38V184.08H180.452V201H177.38V193.704H168.668V201H165.596ZM191.983 201.24C190.751 201.24 189.631 201.04 188.623 200.64C187.631 200.224 186.775 199.632 186.055 198.864C185.351 198.096 184.807 197.176 184.423 196.104C184.039 195.032 183.847 193.84 183.847 192.528C183.847 191.2 184.039 190.008 184.423 188.952C184.807 187.88 185.351 186.968 186.055 186.216C186.775 185.448 187.631 184.864 188.623 184.464C189.631 184.048 190.751 183.84 191.983 183.84C193.215 183.84 194.327 184.048 195.319 184.464C196.327 184.864 197.183 185.44 197.887 186.192C198.607 186.944 199.159 187.856 199.543 188.928C199.927 189.984 200.119 191.176 200.119 192.504C200.119 193.832 199.927 195.032 199.543 196.104C199.159 197.176 198.607 198.096 197.887 198.864C197.183 199.632 196.327 200.224 195.319 200.64C194.327 201.04 193.215 201.24 191.983 201.24ZM191.983 198.6C193.023 198.6 193.903 198.36 194.623 197.88C195.359 197.4 195.919 196.704 196.303 195.792C196.703 194.88 196.903 193.792 196.903 192.528C196.903 191.248 196.711 190.16 196.327 189.264C195.943 188.352 195.383 187.664 194.647 187.2C193.911 186.72 193.023 186.48 191.983 186.48C190.959 186.48 190.079 186.72 189.343 187.2C188.607 187.664 188.039 188.352 187.639 189.264C187.255 190.16 187.063 191.248 187.063 192.528C187.063 193.792 187.255 194.88 187.639 195.792C188.039 196.704 188.607 197.4 189.343 197.88C190.079 198.36 190.959 198.6 191.983 198.6ZM203.483 201V184.08H205.787L215.507 196.704H214.883V184.08H217.739V201H215.459L205.739 188.352H206.339V201H203.483ZM221.676 201V184.08H232.932V186.528H224.628V191.184H232.404V193.632H224.628V198.552H232.932V201H221.676Z" fill="white"/>
<path d="M149.7 201H148.7V202H149.7V201ZM149.7 184.08V183.08H148.7V184.08H149.7ZM160.212 184.704L159.778 185.605L160.212 184.704ZM162.18 192.216L163.048 192.712L163.053 192.705L162.18 192.216ZM160.212 194.04L160.646 194.941L160.653 194.938L160.659 194.934L160.212 194.04ZM152.772 194.664V193.664H151.772V194.664H152.772ZM152.772 201V202H153.772V201H152.772ZM152.772 192.24H151.772V193.24H152.772V192.24ZM159.036 191.52L159.687 192.279L159.693 192.274L159.699 192.269L159.036 191.52ZM159.036 187.224L158.385 187.983V187.983L159.036 187.224ZM152.772 186.504V185.504H151.772V186.504H152.772ZM150.7 201V184.08H148.7V201H150.7ZM149.7 185.08H157.044V183.08H149.7V185.08ZM157.044 185.08C158.185 185.08 159.084 185.271 159.778 185.605L160.646 183.803C159.612 183.305 158.399 183.08 157.044 183.08V185.08ZM159.778 185.605C160.472 185.939 160.971 186.403 161.312 187L163.048 186.008C162.493 185.037 161.68 184.301 160.646 183.803L159.778 185.605ZM161.312 187C161.655 187.601 161.852 188.373 161.852 189.36H163.852C163.852 188.107 163.601 186.975 163.048 186.008L161.312 187ZM161.852 189.36C161.852 190.328 161.656 191.104 161.308 191.727L163.053 192.705C163.6 191.728 163.852 190.6 163.852 189.36H161.852ZM161.312 191.72C160.969 192.32 160.465 192.795 159.765 193.146L160.659 194.934C161.687 194.421 162.495 193.68 163.048 192.712L161.312 191.72ZM159.778 193.139C159.084 193.473 158.185 193.664 157.044 193.664V195.664C158.399 195.664 159.612 195.439 160.646 194.941L159.778 193.139ZM157.044 193.664H152.772V195.664H157.044V193.664ZM151.772 194.664V201H153.772V194.664H151.772ZM152.772 200H149.7V202H152.772V200ZM152.772 193.24H156.564V191.24H152.772V193.24ZM156.564 193.24C157.78 193.24 158.876 192.974 159.687 192.279L158.385 190.761C158.076 191.026 157.524 191.24 156.564 191.24V193.24ZM159.699 192.269C160.527 191.535 160.876 190.51 160.876 189.36H158.876C158.876 190.098 158.665 190.513 158.373 190.771L159.699 192.269ZM160.876 189.36C160.876 188.212 160.527 187.185 159.687 186.465L158.385 187.983C158.665 188.223 158.876 188.62 158.876 189.36H160.876ZM159.687 186.465C158.876 185.77 157.78 185.504 156.564 185.504V187.504C157.524 187.504 158.076 187.718 158.385 187.983L159.687 186.465ZM156.564 185.504H152.772V187.504H156.564V185.504ZM151.772 186.504V192.24H153.772V186.504H151.772ZM165.596 201H164.596V202H165.596V201ZM165.596 184.08V183.08H164.596V184.08H165.596ZM168.668 184.08H169.668V183.08H168.668V184.08ZM168.668 191.136H167.668V192.136H168.668V191.136ZM177.38 191.136V192.136H178.38V191.136H177.38ZM177.38 184.08V183.08H176.38V184.08H177.38ZM180.452 184.08H181.452V183.08H180.452V184.08ZM180.452 201V202H181.452V201H180.452ZM177.38 201H176.38V202H177.38V201ZM177.38 193.704H178.38V192.704H177.38V193.704ZM168.668 193.704V192.704H167.668V193.704H168.668ZM168.668 201V202H169.668V201H168.668ZM166.596 201V184.08H164.596V201H166.596ZM165.596 185.08H168.668V183.08H165.596V185.08ZM167.668 184.08V191.136H169.668V184.08H167.668ZM168.668 192.136H177.38V190.136H168.668V192.136ZM178.38 191.136V184.08H176.38V191.136H178.38ZM177.38 185.08H180.452V183.08H177.38V185.08ZM179.452 184.08V201H181.452V184.08H179.452ZM180.452 200H177.38V202H180.452V200ZM178.38 201V193.704H176.38V201H178.38ZM177.38 192.704H168.668V194.704H177.38V192.704ZM167.668 193.704V201H169.668V193.704H167.668ZM168.668 200H165.596V202H168.668V200ZM188.623 200.64L188.236 201.562L188.245 201.566L188.254 201.569L188.623 200.64ZM186.055 198.864L185.318 199.54L185.325 199.548L186.055 198.864ZM184.423 196.104L183.481 196.441L184.423 196.104ZM184.423 188.952L185.363 189.294L185.364 189.289L184.423 188.952ZM186.055 186.216L185.325 185.532L185.325 185.533L186.055 186.216ZM188.623 184.464L188.997 185.391L189.004 185.388L188.623 184.464ZM195.319 184.464L194.932 185.386L194.941 185.39L194.95 185.393L195.319 184.464ZM197.887 186.192L197.157 186.875L197.164 186.884L197.887 186.192ZM199.543 188.928L198.601 189.265L198.603 189.27L199.543 188.928ZM199.543 196.104L198.601 195.767L199.543 196.104ZM197.887 198.864L197.157 198.18L197.15 198.188L197.887 198.864ZM195.319 200.64L195.693 201.567L195.7 201.564L195.319 200.64ZM194.623 197.88L194.076 197.042L194.068 197.048L194.623 197.88ZM196.303 195.792L195.387 195.39L195.384 195.397L195.381 195.404L196.303 195.792ZM196.327 189.264L195.405 189.652L195.408 189.658L196.327 189.264ZM194.647 187.2L194.101 188.038L194.107 188.042L194.113 188.046L194.647 187.2ZM189.343 187.2L189.876 188.046L189.883 188.042L189.889 188.038L189.343 187.2ZM187.639 189.264L186.723 188.862L186.72 188.87L187.639 189.264ZM187.639 195.792L186.717 196.18L186.72 196.187L186.723 196.194L187.639 195.792ZM189.343 197.88L189.889 197.042L189.343 197.88ZM191.983 200.24C190.86 200.24 189.867 200.058 188.992 199.711L188.254 201.569C189.394 202.022 190.642 202.24 191.983 202.24V200.24ZM189.01 199.718C188.144 199.355 187.406 198.843 186.784 198.18L185.325 199.548C186.144 200.421 187.117 201.093 188.236 201.562L189.01 199.718ZM186.792 198.188C186.186 197.527 185.708 196.725 185.364 195.767L183.481 196.441C183.906 197.627 184.516 198.665 185.318 199.54L186.792 198.188ZM185.364 195.767C185.024 194.818 184.847 193.742 184.847 192.528H182.847C182.847 193.938 183.053 195.246 183.481 196.441L185.364 195.767ZM184.847 192.528C184.847 191.296 185.025 190.222 185.363 189.294L183.483 188.61C183.053 189.794 182.847 191.104 182.847 192.528H184.847ZM185.364 189.289C185.707 188.332 186.184 187.542 186.785 186.899L185.325 185.533C184.518 186.394 183.907 187.428 183.481 188.615L185.364 189.289ZM186.784 186.9C187.403 186.24 188.137 185.738 188.997 185.391L188.249 183.537C187.124 183.99 186.146 184.656 185.325 185.532L186.784 186.9ZM189.004 185.388C189.877 185.028 190.865 184.84 191.983 184.84V182.84C190.637 182.84 189.385 183.068 188.241 183.54L189.004 185.388ZM191.983 184.84C193.101 184.84 194.079 185.028 194.932 185.386L195.706 183.542C194.575 183.068 193.328 182.84 191.983 182.84V184.84ZM194.95 185.393C195.828 185.742 196.559 186.237 197.157 186.875L198.617 185.509C197.807 184.643 196.825 183.986 195.688 183.535L194.95 185.393ZM197.164 186.884C197.779 187.525 198.26 188.313 198.601 189.265L200.484 188.591C200.057 187.399 199.435 186.363 198.609 185.5L197.164 186.884ZM198.603 189.27C198.941 190.198 199.119 191.272 199.119 192.504H201.119C201.119 191.08 200.913 189.77 200.483 188.586L198.603 189.27ZM199.119 192.504C199.119 193.736 198.941 194.819 198.601 195.767L200.484 196.441C200.913 195.245 201.119 193.928 201.119 192.504H199.119ZM198.601 195.767C198.26 196.721 197.776 197.52 197.157 198.18L198.616 199.548C199.437 198.672 200.058 197.631 200.484 196.441L198.601 195.767ZM197.15 198.188C196.549 198.843 195.816 199.353 194.937 199.716L195.7 201.564C196.837 201.095 197.816 200.421 198.624 199.54L197.15 198.188ZM194.945 199.713C194.088 200.058 193.106 200.24 191.983 200.24V202.24C193.324 202.24 194.565 202.022 195.693 201.567L194.945 199.713ZM191.983 199.6C193.18 199.6 194.263 199.322 195.177 198.712L194.068 197.048C193.543 197.398 192.866 197.6 191.983 197.6V199.6ZM195.169 198.718C196.093 198.115 196.773 197.252 197.224 196.18L195.381 195.404C195.064 196.156 194.625 196.685 194.077 197.042L195.169 198.718ZM197.219 196.194C197.687 195.126 197.903 193.894 197.903 192.528H195.903C195.903 193.69 195.719 194.634 195.387 195.39L197.219 196.194ZM197.903 192.528C197.903 191.153 197.697 189.923 197.246 188.87L195.408 189.658C195.724 190.397 195.903 191.343 195.903 192.528H197.903ZM197.248 188.876C196.796 187.802 196.113 186.942 195.18 186.354L194.113 188.046C194.653 188.386 195.089 188.902 195.405 189.652L197.248 188.876ZM195.193 186.362C194.267 185.758 193.181 185.48 191.983 185.48V187.48C192.865 187.48 193.555 187.682 194.101 188.038L195.193 186.362ZM191.983 185.48C190.798 185.48 189.72 185.76 188.797 186.362L189.889 188.038C190.437 187.68 191.12 187.48 191.983 187.48V185.48ZM188.809 186.354C187.881 186.939 187.191 187.795 186.723 188.862L188.555 189.666C188.886 188.909 189.333 188.389 189.876 188.046L188.809 186.354ZM186.72 188.87C186.268 189.923 186.063 191.153 186.063 192.528H188.063C188.063 191.343 188.241 190.397 188.558 189.658L186.72 188.87ZM186.063 192.528C186.063 193.89 186.269 195.116 186.717 196.18L188.56 195.404C188.24 194.644 188.063 193.694 188.063 192.528H186.063ZM186.723 196.194C187.19 197.259 187.877 198.118 188.797 198.718L189.889 197.042C189.337 196.682 188.887 196.149 188.555 195.39L186.723 196.194ZM188.797 198.718C189.72 199.32 190.798 199.6 191.983 199.6V197.6C191.12 197.6 190.437 197.4 189.889 197.042L188.797 198.718ZM203.483 201H202.483V202H203.483V201ZM203.483 184.08V183.08H202.483V184.08H203.483ZM205.787 184.08L206.579 183.47L206.279 183.08H205.787V184.08ZM215.507 196.704V197.704H217.539L216.299 196.094L215.507 196.704ZM214.883 196.704H213.883V197.704H214.883V196.704ZM214.883 184.08V183.08H213.883V184.08H214.883ZM217.739 184.08H218.739V183.08H217.739V184.08ZM217.739 201V202H218.739V201H217.739ZM215.459 201L214.666 201.609L214.966 202H215.459V201ZM205.739 188.352V187.352H203.709L204.946 188.961L205.739 188.352ZM206.339 188.352H207.339V187.352H206.339V188.352ZM206.339 201V202H207.339V201H206.339ZM204.483 201V184.08H202.483V201H204.483ZM203.483 185.08H205.787V183.08H203.483V185.08ZM204.994 184.69L214.714 197.314L216.299 196.094L206.579 183.47L204.994 184.69ZM215.507 195.704H214.883V197.704H215.507V195.704ZM215.883 196.704V184.08H213.883V196.704H215.883ZM214.883 185.08H217.739V183.08H214.883V185.08ZM216.739 184.08V201H218.739V184.08H216.739ZM217.739 200H215.459V202H217.739V200ZM216.251 200.391L206.531 187.743L204.946 188.961L214.666 201.609L216.251 200.391ZM205.739 189.352H206.339V187.352H205.739V189.352ZM205.339 188.352V201H207.339V188.352H205.339ZM206.339 200H203.483V202H206.339V200ZM221.676 201H220.676V202H221.676V201ZM221.676 184.08V183.08H220.676V184.08H221.676ZM232.932 184.08H233.932V183.08H232.932V184.08ZM232.932 186.528V187.528H233.932V186.528H232.932ZM224.628 186.528V185.528H223.628V186.528H224.628ZM224.628 191.184H223.628V192.184H224.628V191.184ZM232.404 191.184H233.404V190.184H232.404V191.184ZM232.404 193.632V194.632H233.404V193.632H232.404ZM224.628 193.632V192.632H223.628V193.632H224.628ZM224.628 198.552H223.628V199.552H224.628V198.552ZM232.932 198.552H233.932V197.552H232.932V198.552ZM232.932 201V202H233.932V201H232.932ZM222.676 201V184.08H220.676V201H222.676ZM221.676 185.08H232.932V183.08H221.676V185.08ZM231.932 184.08V186.528H233.932V184.08H231.932ZM232.932 185.528H224.628V187.528H232.932V185.528ZM223.628 186.528V191.184H225.628V186.528H223.628ZM224.628 192.184H232.404V190.184H224.628V192.184ZM231.404 191.184V193.632H233.404V191.184H231.404ZM232.404 192.632H224.628V194.632H232.404V192.632ZM223.628 193.632V198.552H225.628V193.632H223.628ZM224.628 199.552H232.932V197.552H224.628V199.552ZM231.932 198.552V201H233.932V198.552H231.932ZM232.932 200H221.676V202H232.932V200Z" fill="#65504B" mask="url(#path-2-outside-1_1012_752)"/>
<mask id="path-4-outside-2_1012_752" maskUnits="userSpaceOnUse" x="93" y="236" width="196" height="21" fill="black">
<rect fill="white" x="93" y="236" width="196" height="21"/>
<path d="M99.2509 254.04V248.856H94.1629V247.368H99.2509V242.328H100.787V247.368H105.875V248.856H100.787V254.04H99.2509ZM113.498 255.216C112.922 255.216 112.338 255.136 111.746 254.976C111.154 254.8 110.594 254.56 110.066 254.256C109.554 253.952 109.106 253.592 108.722 253.176L109.466 251.616C110.042 252.24 110.682 252.704 111.386 253.008C112.09 253.312 112.802 253.464 113.522 253.464C114.306 253.464 115.002 253.32 115.61 253.032C116.218 252.744 116.73 252.312 117.146 251.736C117.562 251.144 117.874 250.416 118.082 249.552C118.306 248.672 118.418 247.656 118.418 246.504V244.272H118.61C118.514 245.168 118.242 245.952 117.794 246.624C117.362 247.296 116.802 247.808 116.114 248.16C115.426 248.512 114.65 248.688 113.786 248.688C112.794 248.688 111.914 248.464 111.146 248.016C110.394 247.568 109.794 246.936 109.346 246.12C108.914 245.304 108.698 244.384 108.698 243.36C108.698 242.288 108.922 241.344 109.37 240.528C109.834 239.696 110.466 239.048 111.266 238.584C112.082 238.104 113.018 237.864 114.074 237.864C115.402 237.864 116.53 238.192 117.458 238.848C118.402 239.488 119.114 240.424 119.594 241.656C120.074 242.888 120.314 244.376 120.314 246.12C120.314 248.056 120.042 249.704 119.498 251.064C118.97 252.424 118.194 253.456 117.17 254.16C116.162 254.864 114.938 255.216 113.498 255.216ZM114.218 247.032C114.922 247.032 115.546 246.872 116.09 246.552C116.634 246.232 117.058 245.792 117.362 245.232C117.666 244.672 117.818 244.024 117.818 243.288C117.818 242.536 117.666 241.88 117.362 241.32C117.058 240.76 116.634 240.32 116.09 240C115.546 239.68 114.922 239.52 114.218 239.52C113.498 239.52 112.866 239.68 112.322 240C111.794 240.32 111.37 240.76 111.05 241.32C110.746 241.88 110.594 242.536 110.594 243.288C110.594 244.024 110.746 244.672 111.05 245.232C111.37 245.792 111.794 246.232 112.322 246.552C112.866 246.872 113.498 247.032 114.218 247.032ZM125.056 255V253.32H128.92V239.784H129.952L125.872 242.376L125.032 240.912L129.472 238.08H130.888V253.32H134.512V255H125.056ZM146.091 255V253.32H149.955V239.784H150.987L146.907 242.376L146.067 240.912L150.507 238.08H151.923V253.32H155.547V255H146.091ZM159.905 255V253.512L165.689 247.272C166.233 246.68 166.673 246.128 167.009 245.616C167.345 245.088 167.593 244.576 167.753 244.08C167.913 243.584 167.993 243.08 167.993 242.568C167.993 241.608 167.697 240.88 167.105 240.384C166.529 239.872 165.681 239.616 164.561 239.616C163.697 239.616 162.889 239.776 162.137 240.096C161.401 240.4 160.697 240.88 160.025 241.536L159.281 240C159.905 239.36 160.697 238.848 161.657 238.464C162.633 238.064 163.657 237.864 164.729 237.864C165.865 237.864 166.825 238.04 167.609 238.392C168.393 238.744 168.985 239.264 169.385 239.952C169.785 240.624 169.985 241.448 169.985 242.424C169.985 242.936 169.921 243.44 169.793 243.936C169.681 244.416 169.497 244.904 169.241 245.4C169.001 245.88 168.689 246.376 168.305 246.888C167.937 247.4 167.489 247.928 166.961 248.472L161.873 253.872V253.32H170.681V255H159.905ZM179.384 255.216C178.632 255.216 177.904 255.136 177.2 254.976C176.512 254.816 175.864 254.592 175.256 254.304C174.648 254 174.112 253.632 173.648 253.2L174.368 251.64C175.152 252.28 175.944 252.744 176.744 253.032C177.544 253.32 178.408 253.464 179.336 253.464C180.152 253.464 180.84 253.344 181.4 253.104C181.96 252.864 182.384 252.512 182.672 252.048C182.96 251.568 183.104 250.984 183.104 250.296C183.104 249.304 182.776 248.552 182.12 248.04C181.464 247.528 180.512 247.272 179.264 247.272H176.768V245.568H179.096C179.832 245.568 180.456 245.44 180.968 245.184C181.496 244.928 181.904 244.568 182.192 244.104C182.48 243.624 182.624 243.048 182.624 242.376C182.624 241.48 182.336 240.8 181.76 240.336C181.184 239.856 180.352 239.616 179.264 239.616C178.368 239.616 177.544 239.776 176.792 240.096C176.04 240.4 175.328 240.88 174.656 241.536L173.936 240C174.576 239.328 175.376 238.808 176.336 238.44C177.312 238.056 178.328 237.864 179.384 237.864C180.472 237.864 181.4 238.04 182.168 238.392C182.952 238.728 183.552 239.224 183.968 239.88C184.384 240.52 184.592 241.296 184.592 242.208C184.592 243.248 184.304 244.144 183.728 244.896C183.152 245.632 182.368 246.136 181.376 246.408V246.144C182.16 246.272 182.824 246.528 183.368 246.912C183.928 247.296 184.352 247.792 184.64 248.4C184.928 248.992 185.072 249.672 185.072 250.44C185.072 251.416 184.84 252.264 184.376 252.984C183.928 253.688 183.28 254.24 182.432 254.64C181.584 255.024 180.568 255.216 179.384 255.216ZM196.055 255V251.376H188.255V249.888L196.391 238.08H198.047V249.696H200.567V251.376H198.047V255H196.055ZM196.055 249.696V240.456H196.631L189.935 250.224V249.696H196.055ZM209.197 255.216C208.477 255.216 207.773 255.136 207.085 254.976C206.397 254.816 205.749 254.584 205.141 254.28C204.549 253.976 204.021 253.616 203.557 253.2L204.301 251.64C205.069 252.264 205.845 252.728 206.629 253.032C207.429 253.32 208.277 253.464 209.173 253.464C210.357 253.464 211.277 253.136 211.933 252.48C212.605 251.824 212.941 250.96 212.941 249.888C212.941 248.784 212.621 247.88 211.981 247.176C211.341 246.472 210.461 246.12 209.341 246.12C208.525 246.12 207.805 246.288 207.181 246.624C206.573 246.944 206.021 247.448 205.525 248.136H204.085V238.08H213.901V239.76H206.029V246.504H205.501C205.917 245.832 206.493 245.32 207.229 244.968C207.965 244.6 208.789 244.416 209.701 244.416C210.773 244.416 211.693 244.64 212.461 245.088C213.245 245.536 213.845 246.168 214.261 246.984C214.693 247.784 214.909 248.72 214.909 249.792C214.909 250.848 214.677 251.784 214.213 252.6C213.749 253.416 213.093 254.056 212.245 254.52C211.397 254.984 210.381 255.216 209.197 255.216ZM224.068 255.216C222.724 255.216 221.58 254.896 220.636 254.256C219.708 253.6 219.004 252.656 218.524 251.424C218.044 250.192 217.804 248.704 217.804 246.96C217.804 245.008 218.068 243.36 218.596 242.016C219.14 240.656 219.924 239.624 220.948 238.92C221.988 238.216 223.22 237.864 224.644 237.864C225.22 237.864 225.804 237.952 226.396 238.128C226.988 238.288 227.54 238.52 228.052 238.824C228.58 239.128 229.028 239.488 229.396 239.904L228.676 241.44C228.084 240.816 227.436 240.36 226.732 240.072C226.044 239.768 225.332 239.616 224.596 239.616C223.812 239.616 223.116 239.76 222.508 240.048C221.916 240.336 221.404 240.776 220.972 241.368C220.556 241.944 220.244 242.672 220.036 243.552C219.828 244.416 219.724 245.424 219.724 246.576V248.808H219.508C219.604 247.896 219.868 247.112 220.3 246.456C220.748 245.784 221.316 245.272 222.004 244.92C222.692 244.568 223.468 244.392 224.332 244.392C225.324 244.392 226.204 244.616 226.972 245.064C227.74 245.512 228.34 246.144 228.772 246.96C229.204 247.76 229.42 248.68 229.42 249.72C229.42 250.776 229.196 251.72 228.748 252.552C228.3 253.384 227.668 254.04 226.852 254.52C226.036 254.984 225.108 255.216 224.068 255.216ZM223.924 253.536C224.628 253.536 225.252 253.384 225.796 253.08C226.34 252.76 226.764 252.32 227.068 251.76C227.372 251.184 227.524 250.528 227.524 249.792C227.524 249.056 227.372 248.408 227.068 247.848C226.764 247.288 226.34 246.848 225.796 246.528C225.268 246.208 224.644 246.048 223.924 246.048C223.22 246.048 222.596 246.208 222.052 246.528C221.508 246.848 221.084 247.288 220.78 247.848C220.476 248.408 220.324 249.056 220.324 249.792C220.324 250.528 220.476 251.184 220.78 251.76C221.084 252.32 221.508 252.76 222.052 253.08C222.596 253.384 223.22 253.536 223.924 253.536ZM233.587 255L241.891 238.92V239.784H232.507V238.08H243.691V239.568L235.771 255H233.587ZM252.729 255.216C250.825 255.216 249.345 254.808 248.289 253.992C247.233 253.16 246.705 252 246.705 250.512C246.705 249.728 246.865 249.032 247.185 248.424C247.505 247.8 247.953 247.296 248.529 246.912C249.105 246.528 249.769 246.288 250.521 246.192V246.552C249.833 246.392 249.233 246.12 248.721 245.736C248.209 245.336 247.809 244.848 247.521 244.272C247.249 243.696 247.113 243.064 247.113 242.376C247.113 240.952 247.617 239.848 248.625 239.064C249.649 238.264 251.017 237.864 252.729 237.864C254.457 237.864 255.825 238.264 256.833 239.064C257.857 239.848 258.369 240.952 258.369 242.376C258.369 243.064 258.225 243.704 257.937 244.296C257.665 244.872 257.273 245.352 256.761 245.736C256.249 246.12 255.649 246.384 254.961 246.528V246.192C255.713 246.288 256.369 246.536 256.929 246.936C257.505 247.32 257.953 247.816 258.273 248.424C258.593 249.032 258.753 249.728 258.753 250.512C258.753 252 258.225 253.16 257.169 253.992C256.113 254.808 254.633 255.216 252.729 255.216ZM252.729 253.584C254.089 253.584 255.113 253.32 255.801 252.792C256.505 252.264 256.857 251.464 256.857 250.392C256.857 249.336 256.505 248.552 255.801 248.04C255.113 247.512 254.089 247.248 252.729 247.248C251.385 247.248 250.361 247.512 249.657 248.04C248.953 248.552 248.601 249.336 248.601 250.392C248.601 251.464 248.953 252.264 249.657 252.792C250.361 253.32 251.385 253.584 252.729 253.584ZM252.729 245.616C253.913 245.616 254.833 245.344 255.489 244.8C256.145 244.256 256.473 243.504 256.473 242.544C256.473 241.584 256.145 240.84 255.489 240.312C254.833 239.768 253.913 239.496 252.729 239.496C251.561 239.496 250.649 239.768 249.993 240.312C249.337 240.84 249.009 241.584 249.009 242.544C249.009 243.504 249.337 244.256 249.993 244.8C250.649 245.344 251.561 245.616 252.729 245.616ZM266.208 255.216C265.632 255.216 265.048 255.136 264.456 254.976C263.864 254.8 263.304 254.56 262.776 254.256C262.264 253.952 261.816 253.592 261.432 253.176L262.176 251.616C262.752 252.24 263.392 252.704 264.096 253.008C264.8 253.312 265.512 253.464 266.232 253.464C267.016 253.464 267.712 253.32 268.32 253.032C268.928 252.744 269.44 252.312 269.856 251.736C270.272 251.144 270.584 250.416 270.792 249.552C271.016 248.672 271.128 247.656 271.128 246.504V244.272H271.32C271.224 245.168 270.952 245.952 270.504 246.624C270.072 247.296 269.512 247.808 268.824 248.16C268.136 248.512 267.36 248.688 266.496 248.688C265.504 248.688 264.624 248.464 263.856 248.016C263.104 247.568 262.504 246.936 262.056 246.12C261.624 245.304 261.408 244.384 261.408 243.36C261.408 242.288 261.632 241.344 262.08 240.528C262.544 239.696 263.176 239.048 263.976 238.584C264.792 238.104 265.728 237.864 266.784 237.864C268.112 237.864 269.24 238.192 270.168 238.848C271.112 239.488 271.824 240.424 272.304 241.656C272.784 242.888 273.024 244.376 273.024 246.12C273.024 248.056 272.752 249.704 272.208 251.064C271.68 252.424 270.904 253.456 269.88 254.16C268.872 254.864 267.648 255.216 266.208 255.216ZM266.928 247.032C267.632 247.032 268.256 246.872 268.8 246.552C269.344 246.232 269.768 245.792 270.072 245.232C270.376 244.672 270.528 244.024 270.528 243.288C270.528 242.536 270.376 241.88 270.072 241.32C269.768 240.76 269.344 240.32 268.8 240C268.256 239.68 267.632 239.52 266.928 239.52C266.208 239.52 265.576 239.68 265.032 240C264.504 240.32 264.08 240.76 263.76 241.32C263.456 241.88 263.304 242.536 263.304 243.288C263.304 244.024 263.456 244.672 263.76 245.232C264.08 245.792 264.504 246.232 265.032 246.552C265.576 246.872 266.208 247.032 266.928 247.032ZM281.99 255.216C280.71 255.216 279.622 254.888 278.726 254.232C277.846 253.56 277.182 252.576 276.734 251.28C276.286 249.984 276.062 248.4 276.062 246.528C276.062 244.64 276.286 243.056 276.734 241.776C277.182 240.48 277.846 239.504 278.726 238.848C279.622 238.192 280.71 237.864 281.99 237.864C283.286 237.864 284.374 238.192 285.254 238.848C286.134 239.504 286.798 240.472 287.246 241.752C287.694 243.032 287.918 244.616 287.918 246.504C287.918 248.392 287.694 249.984 287.246 251.28C286.798 252.576 286.134 253.56 285.254 254.232C284.374 254.888 283.286 255.216 281.99 255.216ZM281.99 253.512C283.334 253.512 284.326 252.944 284.966 251.808C285.622 250.672 285.95 248.904 285.95 246.504C285.95 244.104 285.63 242.352 284.99 241.248C284.35 240.128 283.35 239.568 281.99 239.568C280.662 239.568 279.67 240.128 279.014 241.248C278.358 242.368 278.03 244.12 278.03 246.504C278.03 248.904 278.35 250.672 278.99 251.808C279.646 252.944 280.646 253.512 281.99 253.512Z"/>
</mask>
<path d="M99.2509 254.04V248.856H94.1629V247.368H99.2509V242.328H100.787V247.368H105.875V248.856H100.787V254.04H99.2509ZM113.498 255.216C112.922 255.216 112.338 255.136 111.746 254.976C111.154 254.8 110.594 254.56 110.066 254.256C109.554 253.952 109.106 253.592 108.722 253.176L109.466 251.616C110.042 252.24 110.682 252.704 111.386 253.008C112.09 253.312 112.802 253.464 113.522 253.464C114.306 253.464 115.002 253.32 115.61 253.032C116.218 252.744 116.73 252.312 117.146 251.736C117.562 251.144 117.874 250.416 118.082 249.552C118.306 248.672 118.418 247.656 118.418 246.504V244.272H118.61C118.514 245.168 118.242 245.952 117.794 246.624C117.362 247.296 116.802 247.808 116.114 248.16C115.426 248.512 114.65 248.688 113.786 248.688C112.794 248.688 111.914 248.464 111.146 248.016C110.394 247.568 109.794 246.936 109.346 246.12C108.914 245.304 108.698 244.384 108.698 243.36C108.698 242.288 108.922 241.344 109.37 240.528C109.834 239.696 110.466 239.048 111.266 238.584C112.082 238.104 113.018 237.864 114.074 237.864C115.402 237.864 116.53 238.192 117.458 238.848C118.402 239.488 119.114 240.424 119.594 241.656C120.074 242.888 120.314 244.376 120.314 246.12C120.314 248.056 120.042 249.704 119.498 251.064C118.97 252.424 118.194 253.456 117.17 254.16C116.162 254.864 114.938 255.216 113.498 255.216ZM114.218 247.032C114.922 247.032 115.546 246.872 116.09 246.552C116.634 246.232 117.058 245.792 117.362 245.232C117.666 244.672 117.818 244.024 117.818 243.288C117.818 242.536 117.666 241.88 117.362 241.32C117.058 240.76 116.634 240.32 116.09 240C115.546 239.68 114.922 239.52 114.218 239.52C113.498 239.52 112.866 239.68 112.322 240C111.794 240.32 111.37 240.76 111.05 241.32C110.746 241.88 110.594 242.536 110.594 243.288C110.594 244.024 110.746 244.672 111.05 245.232C111.37 245.792 111.794 246.232 112.322 246.552C112.866 246.872 113.498 247.032 114.218 247.032ZM125.056 255V253.32H128.92V239.784H129.952L125.872 242.376L125.032 240.912L129.472 238.08H130.888V253.32H134.512V255H125.056ZM146.091 255V253.32H149.955V239.784H150.987L146.907 242.376L146.067 240.912L150.507 238.08H151.923V253.32H155.547V255H146.091ZM159.905 255V253.512L165.689 247.272C166.233 246.68 166.673 246.128 167.009 245.616C167.345 245.088 167.593 244.576 167.753 244.08C167.913 243.584 167.993 243.08 167.993 242.568C167.993 241.608 167.697 240.88 167.105 240.384C166.529 239.872 165.681 239.616 164.561 239.616C163.697 239.616 162.889 239.776 162.137 240.096C161.401 240.4 160.697 240.88 160.025 241.536L159.281 240C159.905 239.36 160.697 238.848 161.657 238.464C162.633 238.064 163.657 237.864 164.729 237.864C165.865 237.864 166.825 238.04 167.609 238.392C168.393 238.744 168.985 239.264 169.385 239.952C169.785 240.624 169.985 241.448 169.985 242.424C169.985 242.936 169.921 243.44 169.793 243.936C169.681 244.416 169.497 244.904 169.241 245.4C169.001 245.88 168.689 246.376 168.305 246.888C167.937 247.4 167.489 247.928 166.961 248.472L161.873 253.872V253.32H170.681V255H159.905ZM179.384 255.216C178.632 255.216 177.904 255.136 177.2 254.976C176.512 254.816 175.864 254.592 175.256 254.304C174.648 254 174.112 253.632 173.648 253.2L174.368 251.64C175.152 252.28 175.944 252.744 176.744 253.032C177.544 253.32 178.408 253.464 179.336 253.464C180.152 253.464 180.84 253.344 181.4 253.104C181.96 252.864 182.384 252.512 182.672 252.048C182.96 251.568 183.104 250.984 183.104 250.296C183.104 249.304 182.776 248.552 182.12 248.04C181.464 247.528 180.512 247.272 179.264 247.272H176.768V245.568H179.096C179.832 245.568 180.456 245.44 180.968 245.184C181.496 244.928 181.904 244.568 182.192 244.104C182.48 243.624 182.624 243.048 182.624 242.376C182.624 241.48 182.336 240.8 181.76 240.336C181.184 239.856 180.352 239.616 179.264 239.616C178.368 239.616 177.544 239.776 176.792 240.096C176.04 240.4 175.328 240.88 174.656 241.536L173.936 240C174.576 239.328 175.376 238.808 176.336 238.44C177.312 238.056 178.328 237.864 179.384 237.864C180.472 237.864 181.4 238.04 182.168 238.392C182.952 238.728 183.552 239.224 183.968 239.88C184.384 240.52 184.592 241.296 184.592 242.208C184.592 243.248 184.304 244.144 183.728 244.896C183.152 245.632 182.368 246.136 181.376 246.408V246.144C182.16 246.272 182.824 246.528 183.368 246.912C183.928 247.296 184.352 247.792 184.64 248.4C184.928 248.992 185.072 249.672 185.072 250.44C185.072 251.416 184.84 252.264 184.376 252.984C183.928 253.688 183.28 254.24 182.432 254.64C181.584 255.024 180.568 255.216 179.384 255.216ZM196.055 255V251.376H188.255V249.888L196.391 238.08H198.047V249.696H200.567V251.376H198.047V255H196.055ZM196.055 249.696V240.456H196.631L189.935 250.224V249.696H196.055ZM209.197 255.216C208.477 255.216 207.773 255.136 207.085 254.976C206.397 254.816 205.749 254.584 205.141 254.28C204.549 253.976 204.021 253.616 203.557 253.2L204.301 251.64C205.069 252.264 205.845 252.728 206.629 253.032C207.429 253.32 208.277 253.464 209.173 253.464C210.357 253.464 211.277 253.136 211.933 252.48C212.605 251.824 212.941 250.96 212.941 249.888C212.941 248.784 212.621 247.88 211.981 247.176C211.341 246.472 210.461 246.12 209.341 246.12C208.525 246.12 207.805 246.288 207.181 246.624C206.573 246.944 206.021 247.448 205.525 248.136H204.085V238.08H213.901V239.76H206.029V246.504H205.501C205.917 245.832 206.493 245.32 207.229 244.968C207.965 244.6 208.789 244.416 209.701 244.416C210.773 244.416 211.693 244.64 212.461 245.088C213.245 245.536 213.845 246.168 214.261 246.984C214.693 247.784 214.909 248.72 214.909 249.792C214.909 250.848 214.677 251.784 214.213 252.6C213.749 253.416 213.093 254.056 212.245 254.52C211.397 254.984 210.381 255.216 209.197 255.216ZM224.068 255.216C222.724 255.216 221.58 254.896 220.636 254.256C219.708 253.6 219.004 252.656 218.524 251.424C218.044 250.192 217.804 248.704 217.804 246.96C217.804 245.008 218.068 243.36 218.596 242.016C219.14 240.656 219.924 239.624 220.948 238.92C221.988 238.216 223.22 237.864 224.644 237.864C225.22 237.864 225.804 237.952 226.396 238.128C226.988 238.288 227.54 238.52 228.052 238.824C228.58 239.128 229.028 239.488 229.396 239.904L228.676 241.44C228.084 240.816 227.436 240.36 226.732 240.072C226.044 239.768 225.332 239.616 224.596 239.616C223.812 239.616 223.116 239.76 222.508 240.048C221.916 240.336 221.404 240.776 220.972 241.368C220.556 241.944 220.244 242.672 220.036 243.552C219.828 244.416 219.724 245.424 219.724 246.576V248.808H219.508C219.604 247.896 219.868 247.112 220.3 246.456C220.748 245.784 221.316 245.272 222.004 244.92C222.692 244.568 223.468 244.392 224.332 244.392C225.324 244.392 226.204 244.616 226.972 245.064C227.74 245.512 228.34 246.144 228.772 246.96C229.204 247.76 229.42 248.68 229.42 249.72C229.42 250.776 229.196 251.72 228.748 252.552C228.3 253.384 227.668 254.04 226.852 254.52C226.036 254.984 225.108 255.216 224.068 255.216ZM223.924 253.536C224.628 253.536 225.252 253.384 225.796 253.08C226.34 252.76 226.764 252.32 227.068 251.76C227.372 251.184 227.524 250.528 227.524 249.792C227.524 249.056 227.372 248.408 227.068 247.848C226.764 247.288 226.34 246.848 225.796 246.528C225.268 246.208 224.644 246.048 223.924 246.048C223.22 246.048 222.596 246.208 222.052 246.528C221.508 246.848 221.084 247.288 220.78 247.848C220.476 248.408 220.324 249.056 220.324 249.792C220.324 250.528 220.476 251.184 220.78 251.76C221.084 252.32 221.508 252.76 222.052 253.08C222.596 253.384 223.22 253.536 223.924 253.536ZM233.587 255L241.891 238.92V239.784H232.507V238.08H243.691V239.568L235.771 255H233.587ZM252.729 255.216C250.825 255.216 249.345 254.808 248.289 253.992C247.233 253.16 246.705 252 246.705 250.512C246.705 249.728 246.865 249.032 247.185 248.424C247.505 247.8 247.953 247.296 248.529 246.912C249.105 246.528 249.769 246.288 250.521 246.192V246.552C249.833 246.392 249.233 246.12 248.721 245.736C248.209 245.336 247.809 244.848 247.521 244.272C247.249 243.696 247.113 243.064 247.113 242.376C247.113 240.952 247.617 239.848 248.625 239.064C249.649 238.264 251.017 237.864 252.729 237.864C254.457 237.864 255.825 238.264 256.833 239.064C257.857 239.848 258.369 240.952 258.369 242.376C258.369 243.064 258.225 243.704 257.937 244.296C257.665 244.872 257.273 245.352 256.761 245.736C256.249 246.12 255.649 246.384 254.961 246.528V246.192C255.713 246.288 256.369 246.536 256.929 246.936C257.505 247.32 257.953 247.816 258.273 248.424C258.593 249.032 258.753 249.728 258.753 250.512C258.753 252 258.225 253.16 257.169 253.992C256.113 254.808 254.633 255.216 252.729 255.216ZM252.729 253.584C254.089 253.584 255.113 253.32 255.801 252.792C256.505 252.264 256.857 251.464 256.857 250.392C256.857 249.336 256.505 248.552 255.801 248.04C255.113 247.512 254.089 247.248 252.729 247.248C251.385 247.248 250.361 247.512 249.657 248.04C248.953 248.552 248.601 249.336 248.601 250.392C248.601 251.464 248.953 252.264 249.657 252.792C250.361 253.32 251.385 253.584 252.729 253.584ZM252.729 245.616C253.913 245.616 254.833 245.344 255.489 244.8C256.145 244.256 256.473 243.504 256.473 242.544C256.473 241.584 256.145 240.84 255.489 240.312C254.833 239.768 253.913 239.496 252.729 239.496C251.561 239.496 250.649 239.768 249.993 240.312C249.337 240.84 249.009 241.584 249.009 242.544C249.009 243.504 249.337 244.256 249.993 244.8C250.649 245.344 251.561 245.616 252.729 245.616ZM266.208 255.216C265.632 255.216 265.048 255.136 264.456 254.976C263.864 254.8 263.304 254.56 262.776 254.256C262.264 253.952 261.816 253.592 261.432 253.176L262.176 251.616C262.752 252.24 263.392 252.704 264.096 253.008C264.8 253.312 265.512 253.464 266.232 253.464C267.016 253.464 267.712 253.32 268.32 253.032C268.928 252.744 269.44 252.312 269.856 251.736C270.272 251.144 270.584 250.416 270.792 249.552C271.016 248.672 271.128 247.656 271.128 246.504V244.272H271.32C271.224 245.168 270.952 245.952 270.504 246.624C270.072 247.296 269.512 247.808 268.824 248.16C268.136 248.512 267.36 248.688 266.496 248.688C265.504 248.688 264.624 248.464 263.856 248.016C263.104 247.568 262.504 246.936 262.056 246.12C261.624 245.304 261.408 244.384 261.408 243.36C261.408 242.288 261.632 241.344 262.08 240.528C262.544 239.696 263.176 239.048 263.976 238.584C264.792 238.104 265.728 237.864 266.784 237.864C268.112 237.864 269.24 238.192 270.168 238.848C271.112 239.488 271.824 240.424 272.304 241.656C272.784 242.888 273.024 244.376 273.024 246.12C273.024 248.056 272.752 249.704 272.208 251.064C271.68 252.424 270.904 253.456 269.88 254.16C268.872 254.864 267.648 255.216 266.208 255.216ZM266.928 247.032C267.632 247.032 268.256 246.872 268.8 246.552C269.344 246.232 269.768 245.792 270.072 245.232C270.376 244.672 270.528 244.024 270.528 243.288C270.528 242.536 270.376 241.88 270.072 241.32C269.768 240.76 269.344 240.32 268.8 240C268.256 239.68 267.632 239.52 266.928 239.52C266.208 239.52 265.576 239.68 265.032 240C264.504 240.32 264.08 240.76 263.76 241.32C263.456 241.88 263.304 242.536 263.304 243.288C263.304 244.024 263.456 244.672 263.76 245.232C264.08 245.792 264.504 246.232 265.032 246.552C265.576 246.872 266.208 247.032 266.928 247.032ZM281.99 255.216C280.71 255.216 279.622 254.888 278.726 254.232C277.846 253.56 277.182 252.576 276.734 251.28C276.286 249.984 276.062 248.4 276.062 246.528C276.062 244.64 276.286 243.056 276.734 241.776C277.182 240.48 277.846 239.504 278.726 238.848C279.622 238.192 280.71 237.864 281.99 237.864C283.286 237.864 284.374 238.192 285.254 238.848C286.134 239.504 286.798 240.472 287.246 241.752C287.694 243.032 287.918 244.616 287.918 246.504C287.918 248.392 287.694 249.984 287.246 251.28C286.798 252.576 286.134 253.56 285.254 254.232C284.374 254.888 283.286 255.216 281.99 255.216ZM281.99 253.512C283.334 253.512 284.326 252.944 284.966 251.808C285.622 250.672 285.95 248.904 285.95 246.504C285.95 244.104 285.63 242.352 284.99 241.248C284.35 240.128 283.35 239.568 281.99 239.568C280.662 239.568 279.67 240.128 279.014 241.248C278.358 242.368 278.03 244.12 278.03 246.504C278.03 248.904 278.35 250.672 278.99 251.808C279.646 252.944 280.646 253.512 281.99 253.512Z" fill="white"/>
<path d="M99.2509 254.04H98.2509V255.04H99.2509V254.04ZM99.2509 248.856H100.251V247.856H99.2509V248.856ZM94.1629 248.856H93.1629V249.856H94.1629V248.856ZM94.1629 247.368V246.368H93.1629V247.368H94.1629ZM99.2509 247.368V248.368H100.251V247.368H99.2509ZM99.2509 242.328V241.328H98.2509V242.328H99.2509ZM100.787 242.328H101.787V241.328H100.787V242.328ZM100.787 247.368H99.7869V248.368H100.787V247.368ZM105.875 247.368H106.875V246.368H105.875V247.368ZM105.875 248.856V249.856H106.875V248.856H105.875ZM100.787 248.856V247.856H99.7869V248.856H100.787ZM100.787 254.04V255.04H101.787V254.04H100.787ZM100.251 254.04V248.856H98.2509V254.04H100.251ZM99.2509 247.856H94.1629V249.856H99.2509V247.856ZM95.1629 248.856V247.368H93.1629V248.856H95.1629ZM94.1629 248.368H99.2509V246.368H94.1629V248.368ZM100.251 247.368V242.328H98.2509V247.368H100.251ZM99.2509 243.328H100.787V241.328H99.2509V243.328ZM99.7869 242.328V247.368H101.787V242.328H99.7869ZM100.787 248.368H105.875V246.368H100.787V248.368ZM104.875 247.368V248.856H106.875V247.368H104.875ZM105.875 247.856H100.787V249.856H105.875V247.856ZM99.7869 248.856V254.04H101.787V248.856H99.7869ZM100.787 253.04H99.2509V255.04H100.787V253.04ZM111.746 254.976L111.461 255.935L111.473 255.938L111.485 255.941L111.746 254.976ZM110.066 254.256L109.555 255.116L109.567 255.123L110.066 254.256ZM108.722 253.176L107.819 252.746L107.527 253.357L107.987 253.854L108.722 253.176ZM109.466 251.616L110.2 250.938L109.199 249.853L108.563 251.186L109.466 251.616ZM115.61 253.032L115.181 252.128L115.61 253.032ZM117.146 251.736L117.956 252.322L117.964 252.311L117.146 251.736ZM118.082 249.552L117.112 249.305L117.109 249.318L118.082 249.552ZM118.418 244.272V243.272H117.418V244.272H118.418ZM118.61 244.272L119.604 244.379L119.722 243.272H118.61V244.272ZM117.794 246.624L116.961 246.069L116.957 246.076L116.952 246.083L117.794 246.624ZM116.114 248.16L115.658 247.27L116.114 248.16ZM111.146 248.016L110.634 248.875L110.642 248.88L111.146 248.016ZM109.346 246.12L108.462 246.588L108.465 246.595L108.469 246.601L109.346 246.12ZM109.37 240.528L108.496 240.041L108.493 240.047L109.37 240.528ZM111.266 238.584L111.767 239.449L111.773 239.446L111.266 238.584ZM117.458 238.848L116.88 239.665L116.888 239.67L116.896 239.676L117.458 238.848ZM119.594 241.656L120.525 241.293V241.293L119.594 241.656ZM119.498 251.064L118.569 250.693L118.565 250.702L119.498 251.064ZM117.17 254.16L116.603 253.336L116.597 253.34L117.17 254.16ZM116.09 246.552L115.583 245.69L116.09 246.552ZM117.362 245.232L118.24 245.709L117.362 245.232ZM117.362 241.32L118.24 240.843L117.362 241.32ZM116.09 240L115.583 240.862V240.862L116.09 240ZM112.322 240L111.814 239.138L111.803 239.145L112.322 240ZM111.05 241.32L110.181 240.824L110.176 240.833L110.171 240.843L111.05 241.32ZM111.05 245.232L110.171 245.709L110.176 245.719L110.181 245.728L111.05 245.232ZM112.322 246.552L111.803 247.407L111.815 247.414L112.322 246.552ZM113.498 254.216C113.015 254.216 112.519 254.149 112.006 254.011L111.485 255.941C112.156 256.123 112.828 256.216 113.498 256.216V254.216ZM112.031 254.017C111.512 253.863 111.024 253.654 110.564 253.389L109.567 255.123C110.163 255.466 110.795 255.737 111.461 255.935L112.031 254.017ZM110.576 253.396C110.143 253.139 109.771 252.839 109.456 252.498L107.987 253.854C108.44 254.345 108.964 254.765 109.555 255.116L110.576 253.396ZM109.624 253.606L110.368 252.046L108.563 251.186L107.819 252.746L109.624 253.606ZM108.731 252.294C109.391 253.01 110.144 253.561 110.989 253.926L111.782 252.09C111.219 251.847 110.692 251.47 110.2 250.938L108.731 252.294ZM110.989 253.926C111.81 254.281 112.656 254.464 113.522 254.464V252.464C112.947 252.464 112.369 252.343 111.782 252.09L110.989 253.926ZM113.522 254.464C114.429 254.464 115.275 254.297 116.038 253.936L115.181 252.128C114.728 252.343 114.182 252.464 113.522 252.464V254.464ZM116.038 253.936C116.807 253.572 117.447 253.026 117.956 252.321L116.335 251.151C116.012 251.598 115.629 251.916 115.181 252.128L116.038 253.936ZM117.964 252.311C118.466 251.595 118.823 250.745 119.054 249.786L117.109 249.318C116.924 250.087 116.657 250.693 116.327 251.161L117.964 252.311ZM119.051 249.799C119.3 248.82 119.418 247.718 119.418 246.504H117.418C117.418 247.594 117.311 248.524 117.112 249.305L119.051 249.799ZM119.418 246.504V244.272H117.418V246.504H119.418ZM118.418 245.272H118.61V243.272H118.418V245.272ZM117.615 244.165C117.534 244.92 117.31 245.546 116.961 246.069L118.626 247.179C119.173 246.358 119.493 245.416 119.604 244.379L117.615 244.165ZM116.952 246.083C116.612 246.612 116.183 247.001 115.658 247.27L116.569 249.05C117.42 248.615 118.111 247.98 118.635 247.165L116.952 246.083ZM115.658 247.27C115.127 247.541 114.51 247.688 113.786 247.688V249.688C114.789 249.688 115.724 249.483 116.569 249.05L115.658 247.27ZM113.786 247.688C112.95 247.688 112.247 247.501 111.649 247.152L110.642 248.88C111.58 249.427 112.637 249.688 113.786 249.688V247.688ZM111.657 247.157C111.068 246.806 110.59 246.309 110.222 245.639L108.469 246.601C108.997 247.563 109.719 248.33 110.634 248.875L111.657 247.157ZM110.229 245.652C109.882 244.995 109.698 244.239 109.698 243.36H107.698C107.698 244.529 107.945 245.613 108.462 246.588L110.229 245.652ZM109.698 243.36C109.698 242.431 109.891 241.657 110.246 241.009L108.493 240.047C107.952 241.031 107.698 242.145 107.698 243.36H109.698ZM110.243 241.015C110.622 240.335 111.128 239.82 111.767 239.449L110.764 237.719C109.803 238.276 109.045 239.057 108.496 240.041L110.243 241.015ZM111.773 239.446C112.418 239.066 113.175 238.864 114.074 238.864V236.864C112.86 236.864 111.745 237.142 110.759 237.722L111.773 239.446ZM114.074 238.864C115.231 238.864 116.148 239.147 116.88 239.665L118.035 238.031C116.911 237.237 115.572 236.864 114.074 236.864V238.864ZM116.896 239.676C117.647 240.185 118.243 240.945 118.662 242.019L120.525 241.293C119.984 239.903 119.156 238.791 118.019 238.02L116.896 239.676ZM118.662 242.019C119.085 243.105 119.314 244.463 119.314 246.12H121.314C121.314 244.289 121.062 242.671 120.525 241.293L118.662 242.019ZM119.314 246.12C119.314 247.968 119.053 249.482 118.569 250.693L120.426 251.435C121.03 249.926 121.314 248.144 121.314 246.12H119.314ZM118.565 250.702C118.097 251.908 117.434 252.764 116.603 253.336L117.736 254.984C118.953 254.148 119.842 252.94 120.43 251.426L118.565 250.702ZM116.597 253.34C115.784 253.908 114.769 254.216 113.498 254.216V256.216C115.106 256.216 116.539 255.82 117.742 254.98L116.597 253.34ZM114.218 248.032C115.079 248.032 115.882 247.834 116.597 247.414L115.583 245.69C115.209 245.91 114.764 246.032 114.218 246.032V248.032ZM116.597 247.414C117.299 247.001 117.851 246.427 118.24 245.709L116.483 244.755C116.264 245.157 115.968 245.463 115.583 245.69L116.597 247.414ZM118.24 245.709C118.635 244.981 118.818 244.165 118.818 243.288H116.818C116.818 243.883 116.696 244.363 116.483 244.755L118.24 245.709ZM118.818 243.288C118.818 242.399 118.637 241.574 118.24 240.843L116.483 241.797C116.694 242.186 116.818 242.673 116.818 243.288H118.818ZM118.24 240.843C117.851 240.125 117.299 239.551 116.597 239.138L115.583 240.862C115.968 241.089 116.264 241.395 116.483 241.797L118.24 240.843ZM116.597 239.138C115.882 238.718 115.079 238.52 114.218 238.52V240.52C114.764 240.52 115.209 240.642 115.583 240.862L116.597 239.138ZM114.218 238.52C113.345 238.52 112.533 238.716 111.815 239.138L112.829 240.862C113.198 240.644 113.65 240.52 114.218 240.52V238.52ZM111.803 239.145C111.123 239.557 110.582 240.123 110.181 240.824L111.918 241.816C112.157 241.397 112.464 241.083 112.84 240.855L111.803 239.145ZM110.171 240.843C109.774 241.574 109.594 242.399 109.594 243.288H111.594C111.594 242.673 111.717 242.186 111.928 241.797L110.171 240.843ZM109.594 243.288C109.594 244.165 109.776 244.981 110.171 245.709L111.928 244.755C111.715 244.363 111.594 243.883 111.594 243.288H109.594ZM110.181 245.728C110.582 246.429 111.123 246.995 111.803 247.407L112.84 245.697C112.464 245.469 112.157 245.155 111.918 244.736L110.181 245.728ZM111.815 247.414C112.533 247.836 113.345 248.032 114.218 248.032V246.032C113.65 246.032 113.198 245.908 112.829 245.69L111.815 247.414ZM125.056 255H124.056V256H125.056V255ZM125.056 253.32V252.32H124.056V253.32H125.056ZM128.92 253.32V254.32H129.92V253.32H128.92ZM128.92 239.784V238.784H127.92V239.784H128.92ZM129.952 239.784L130.488 240.628L133.391 238.784H129.952V239.784ZM125.872 242.376L125.005 242.874L125.525 243.781L126.408 243.22L125.872 242.376ZM125.032 240.912L124.494 240.069L123.69 240.582L124.165 241.41L125.032 240.912ZM129.472 238.08V237.08H129.18L128.934 237.237L129.472 238.08ZM130.888 238.08H131.888V237.08H130.888V238.08ZM130.888 253.32H129.888V254.32H130.888V253.32ZM134.512 253.32H135.512V252.32H134.512V253.32ZM134.512 255V256H135.512V255H134.512ZM126.056 255V253.32H124.056V255H126.056ZM125.056 254.32H128.92V252.32H125.056V254.32ZM129.92 253.32V239.784H127.92V253.32H129.92ZM128.92 240.784H129.952V238.784H128.92V240.784ZM129.416 238.94L125.336 241.532L126.408 243.22L130.488 240.628L129.416 238.94ZM126.74 241.878L125.9 240.414L124.165 241.41L125.005 242.874L126.74 241.878ZM125.57 241.755L130.01 238.923L128.934 237.237L124.494 240.069L125.57 241.755ZM129.472 239.08H130.888V237.08H129.472V239.08ZM129.888 238.08V253.32H131.888V238.08H129.888ZM130.888 254.32H134.512V252.32H130.888V254.32ZM133.512 253.32V255H135.512V253.32H133.512ZM134.512 254H125.056V256H134.512V254ZM146.091 255H145.091V256H146.091V255ZM146.091 253.32V252.32H145.091V253.32H146.091ZM149.955 253.32V254.32H150.955V253.32H149.955ZM149.955 239.784V238.784H148.955V239.784H149.955ZM150.987 239.784L151.523 240.628L154.426 238.784H150.987V239.784ZM146.907 242.376L146.039 242.874L146.56 243.781L147.443 243.22L146.907 242.376ZM146.067 240.912L145.529 240.069L144.725 240.582L145.199 241.41L146.067 240.912ZM150.507 238.08V237.08H150.215L149.969 237.237L150.507 238.08ZM151.923 238.08H152.923V237.08H151.923V238.08ZM151.923 253.32H150.923V254.32H151.923V253.32ZM155.547 253.32H156.547V252.32H155.547V253.32ZM155.547 255V256H156.547V255H155.547ZM147.091 255V253.32H145.091V255H147.091ZM146.091 254.32H149.955V252.32H146.091V254.32ZM150.955 253.32V239.784H148.955V253.32H150.955ZM149.955 240.784H150.987V238.784H149.955V240.784ZM150.451 238.94L146.371 241.532L147.443 243.22L151.523 240.628L150.451 238.94ZM147.774 241.878L146.934 240.414L145.199 241.41L146.039 242.874L147.774 241.878ZM146.605 241.755L151.045 238.923L149.969 237.237L145.529 240.069L146.605 241.755ZM150.507 239.08H151.923V237.08H150.507V239.08ZM150.923 238.08V253.32H152.923V238.08H150.923ZM151.923 254.32H155.547V252.32H151.923V254.32ZM154.547 253.32V255H156.547V253.32H154.547ZM155.547 254H146.091V256H155.547V254ZM159.905 255H158.905V256H159.905V255ZM159.905 253.512L159.172 252.832L158.905 253.12V253.512H159.905ZM165.689 247.272L166.423 247.952L166.426 247.949L165.689 247.272ZM167.009 245.616L167.846 246.165L167.853 246.153L167.009 245.616ZM167.753 244.08L168.705 244.387V244.387L167.753 244.08ZM167.105 240.384L166.441 241.131L166.452 241.141L166.463 241.151L167.105 240.384ZM162.137 240.096L162.519 241.02L162.529 241.016L162.137 240.096ZM160.025 241.536L159.125 241.972L159.731 243.221L160.724 242.252L160.025 241.536ZM159.281 240L158.565 239.302L158.076 239.804L158.381 240.436L159.281 240ZM161.657 238.464L162.029 239.393L162.037 239.389L161.657 238.464ZM169.385 239.952L168.521 240.455L168.526 240.463L169.385 239.952ZM169.793 243.936L168.825 243.686L168.822 243.697L168.82 243.709L169.793 243.936ZM169.241 245.4L168.353 244.941L168.347 244.953L169.241 245.4ZM168.305 246.888L167.505 246.288L167.499 246.296L167.493 246.304L168.305 246.888ZM166.961 248.472L166.244 247.776L166.239 247.781L166.234 247.786L166.961 248.472ZM161.873 253.872H160.873V256.392L162.601 254.558L161.873 253.872ZM161.873 253.32V252.32H160.873V253.32H161.873ZM170.681 253.32H171.681V252.32H170.681V253.32ZM170.681 255V256H171.681V255H170.681ZM160.905 255V253.512H158.905V255H160.905ZM160.639 254.192L166.423 247.952L164.956 246.592L159.172 252.832L160.639 254.192ZM166.426 247.949C166.996 247.328 167.472 246.733 167.846 246.165L166.173 245.067C165.875 245.523 165.471 246.032 164.953 246.595L166.426 247.949ZM167.853 246.153C168.226 245.567 168.514 244.978 168.705 244.387L166.802 243.773C166.672 244.174 166.465 244.609 166.166 245.079L167.853 246.153ZM168.705 244.387C168.897 243.794 168.993 243.186 168.993 242.568H166.993C166.993 242.974 166.93 243.374 166.802 243.773L168.705 244.387ZM168.993 242.568C168.993 241.39 168.62 240.349 167.748 239.617L166.463 241.151C166.775 241.411 166.993 241.826 166.993 242.568H168.993ZM167.77 239.637C166.943 238.902 165.817 238.616 164.561 238.616V240.616C165.546 240.616 166.116 240.842 166.441 241.131L167.77 239.637ZM164.561 238.616C163.571 238.616 162.629 238.8 161.746 239.176L162.529 241.016C163.15 240.752 163.824 240.616 164.561 240.616V238.616ZM161.756 239.172C160.883 239.532 160.074 240.091 159.327 240.82L160.724 242.252C161.321 241.669 161.92 241.268 162.519 241.02L161.756 239.172ZM160.925 241.1L160.181 239.564L158.381 240.436L159.125 241.972L160.925 241.1ZM159.997 240.698C160.51 240.173 161.178 239.733 162.029 239.392L161.286 237.536C160.217 237.963 159.301 238.547 158.565 239.302L159.997 240.698ZM162.037 239.389C162.89 239.039 163.785 238.864 164.729 238.864V236.864C163.53 236.864 162.377 237.089 161.278 237.539L162.037 239.389ZM164.729 238.864C165.768 238.864 166.579 239.026 167.2 239.304L168.019 237.48C167.072 237.054 165.963 236.864 164.729 236.864V238.864ZM167.2 239.304C167.809 239.578 168.235 239.962 168.521 240.455L170.25 239.449C169.736 238.566 168.978 237.91 168.019 237.48L167.2 239.304ZM168.526 240.463C168.814 240.947 168.985 241.584 168.985 242.424H170.985C170.985 241.312 170.757 240.301 170.245 239.441L168.526 240.463ZM168.985 242.424C168.985 242.852 168.932 243.272 168.825 243.686L170.762 244.186C170.911 243.608 170.985 243.02 170.985 242.424H168.985ZM168.82 243.709C168.729 244.099 168.576 244.509 168.353 244.941L170.13 245.859C170.419 245.299 170.634 244.733 170.767 244.163L168.82 243.709ZM168.347 244.953C168.138 245.37 167.86 245.815 167.505 246.288L169.105 247.488C169.519 246.937 169.865 246.39 170.136 245.847L168.347 244.953ZM167.493 246.304C167.159 246.769 166.744 247.26 166.244 247.776L167.679 249.168C168.235 248.596 168.716 248.031 169.117 247.472L167.493 246.304ZM166.234 247.786L161.146 253.186L162.601 254.558L167.689 249.158L166.234 247.786ZM162.873 253.872V253.32H160.873V253.872H162.873ZM161.873 254.32H170.681V252.32H161.873V254.32ZM169.681 253.32V255H171.681V253.32H169.681ZM170.681 254H159.905V256H170.681V254ZM177.2 254.976L176.974 255.95L176.978 255.951L177.2 254.976ZM175.256 254.304L174.809 255.198L174.818 255.203L174.828 255.208L175.256 254.304ZM173.648 253.2L172.74 252.781L172.437 253.438L172.967 253.932L173.648 253.2ZM174.368 251.64L175 250.865L174.001 250.049L173.46 251.221L174.368 251.64ZM176.744 253.032L177.083 252.091L176.744 253.032ZM182.672 252.048L183.522 252.575L183.526 252.569L183.53 252.562L182.672 252.048ZM176.768 247.272H175.768V248.272H176.768V247.272ZM176.768 245.568V244.568H175.768V245.568H176.768ZM180.968 245.184L180.532 244.284L180.521 244.29L180.968 245.184ZM182.192 244.104L183.042 244.631L183.046 244.625L183.05 244.618L182.192 244.104ZM181.76 240.336L181.12 241.104L181.126 241.11L181.133 241.115L181.76 240.336ZM176.792 240.096L177.167 241.023L177.175 241.02L177.184 241.016L176.792 240.096ZM174.656 241.536L173.751 241.96L174.348 243.234L175.355 242.252L174.656 241.536ZM173.936 240L173.212 239.31L172.74 239.805L173.031 240.424L173.936 240ZM176.336 238.44L176.694 239.374L176.702 239.371L176.336 238.44ZM182.168 238.392L181.751 239.301L181.763 239.306L181.774 239.311L182.168 238.392ZM183.968 239.88L183.124 240.416L183.13 240.425L183.968 239.88ZM183.728 244.896L184.516 245.512L184.522 245.504L183.728 244.896ZM181.376 246.408H180.376V247.719L181.641 247.372L181.376 246.408ZM181.376 246.144L181.537 245.157L180.376 244.967V246.144H181.376ZM183.368 246.912L182.791 247.729L182.803 247.737L183.368 246.912ZM184.64 248.4L183.736 248.828L183.741 248.837L184.64 248.4ZM184.376 252.984L183.536 252.442L183.532 252.447L184.376 252.984ZM182.432 254.64L182.845 255.551L182.852 255.548L182.859 255.544L182.432 254.64ZM179.384 254.216C178.704 254.216 178.05 254.144 177.422 254.001L176.978 255.951C177.758 256.128 178.561 256.216 179.384 256.216V254.216ZM177.427 254.002C176.805 253.857 176.225 253.656 175.684 253.4L174.828 255.208C175.504 255.528 176.22 255.775 176.974 255.95L177.427 254.002ZM175.703 253.41C175.175 253.145 174.719 252.83 174.33 252.468L172.967 253.932C173.505 254.434 174.122 254.855 174.809 255.198L175.703 253.41ZM174.556 253.619L175.276 252.059L173.46 251.221L172.74 252.781L174.556 253.619ZM173.736 252.415C174.591 253.113 175.481 253.64 176.405 253.973L177.083 252.091C176.408 251.848 175.713 251.447 175 250.865L173.736 252.415ZM176.405 253.973C177.324 254.303 178.303 254.464 179.336 254.464V252.464C178.513 252.464 177.765 252.337 177.083 252.091L176.405 253.973ZM179.336 254.464C180.244 254.464 181.075 254.331 181.794 254.023L181.006 252.185C180.605 252.357 180.06 252.464 179.336 252.464V254.464ZM181.794 254.023C182.52 253.712 183.113 253.233 183.522 252.575L181.822 251.521C181.655 251.791 181.4 252.016 181.006 252.185L181.794 254.023ZM183.53 252.562C183.93 251.895 184.104 251.124 184.104 250.296H182.104C182.104 250.844 181.99 251.241 181.815 251.534L183.53 252.562ZM184.104 250.296C184.104 249.062 183.682 247.99 182.735 247.252L181.505 248.828C181.87 249.114 182.104 249.546 182.104 250.296H184.104ZM182.735 247.252C181.835 246.549 180.629 246.272 179.264 246.272V248.272C180.396 248.272 181.093 248.507 181.505 248.828L182.735 247.252ZM179.264 246.272H176.768V248.272H179.264V246.272ZM177.768 247.272V245.568H175.768V247.272H177.768ZM176.768 246.568H179.096V244.568H176.768V246.568ZM179.096 246.568C179.944 246.568 180.731 246.421 181.415 246.078L180.521 244.29C180.182 244.459 179.72 244.568 179.096 244.568V246.568ZM181.404 246.084C182.089 245.752 182.646 245.268 183.042 244.631L181.342 243.577C181.162 243.868 180.903 244.104 180.532 244.284L181.404 246.084ZM183.05 244.618C183.448 243.955 183.624 243.193 183.624 242.376H181.624C181.624 242.903 181.512 243.293 181.335 243.59L183.05 244.618ZM183.624 242.376C183.624 241.248 183.249 240.251 182.387 239.557L181.133 241.115C181.423 241.349 181.624 241.712 181.624 242.376H183.624ZM182.4 239.568C181.579 238.883 180.483 238.616 179.264 238.616V240.616C180.221 240.616 180.789 240.829 181.12 241.104L182.4 239.568ZM179.264 238.616C178.247 238.616 177.288 238.798 176.401 239.176L177.184 241.016C177.8 240.754 178.49 240.616 179.264 240.616V238.616ZM176.417 239.169C175.527 239.529 174.708 240.088 173.958 240.82L175.355 242.252C175.948 241.672 176.553 241.271 177.167 241.023L176.417 239.169ZM175.562 241.112L174.842 239.576L173.031 240.424L173.751 241.96L175.562 241.112ZM174.66 240.69C175.187 240.136 175.858 239.694 176.694 239.374L175.978 237.506C174.895 237.922 173.965 238.52 173.212 239.31L174.66 240.69ZM176.702 239.371C177.561 239.033 178.453 238.864 179.384 238.864V236.864C178.204 236.864 177.063 237.079 175.97 237.509L176.702 239.371ZM179.384 238.864C180.368 238.864 181.146 239.024 181.751 239.301L182.585 237.483C181.654 237.056 180.576 236.864 179.384 236.864V238.864ZM181.774 239.311C182.392 239.576 182.826 239.947 183.124 240.416L184.813 239.344C184.278 238.501 183.512 237.88 182.562 237.473L181.774 239.311ZM183.13 240.425C183.421 240.873 183.592 241.451 183.592 242.208H185.592C185.592 241.141 185.347 240.167 184.807 239.335L183.13 240.425ZM183.592 242.208C183.592 243.051 183.363 243.728 182.934 244.288L184.522 245.504C185.245 244.56 185.592 243.445 185.592 242.208H183.592ZM182.941 244.28C182.51 244.829 181.918 245.222 181.112 245.444L181.641 247.372C182.818 247.05 183.794 246.435 184.516 245.512L182.941 244.28ZM182.376 246.408V246.144H180.376V246.408H182.376ZM181.215 247.131C181.878 247.239 182.393 247.448 182.791 247.729L183.945 246.095C183.255 245.608 182.442 245.305 181.537 245.157L181.215 247.131ZM182.803 247.737C183.218 248.022 183.525 248.381 183.736 248.828L185.544 247.972C185.179 247.203 184.638 246.57 183.934 246.087L182.803 247.737ZM183.741 248.837C183.952 249.272 184.072 249.798 184.072 250.44H186.072C186.072 249.546 185.904 248.712 185.539 247.963L183.741 248.837ZM184.072 250.44C184.072 251.251 183.881 251.905 183.536 252.442L185.217 253.526C185.799 252.623 186.072 251.581 186.072 250.44H184.072ZM183.532 252.447C183.198 252.973 182.704 253.406 182.005 253.736L182.859 255.544C183.856 255.074 184.658 254.403 185.22 253.521L183.532 252.447ZM182.02 253.729C181.331 254.041 180.463 254.216 179.384 254.216V256.216C180.673 256.216 181.837 256.007 182.845 255.551L182.02 253.729ZM196.055 255H195.055V256H196.055V255ZM196.055 251.376H197.055V250.376H196.055V251.376ZM188.255 251.376H187.255V252.376H188.255V251.376ZM188.255 249.888L187.431 249.321L187.255 249.577V249.888H188.255ZM196.391 238.08V237.08H195.865L195.567 237.513L196.391 238.08ZM198.047 238.08H199.047V237.08H198.047V238.08ZM198.047 249.696H197.047V250.696H198.047V249.696ZM200.567 249.696H201.567V248.696H200.567V249.696ZM200.567 251.376V252.376H201.567V251.376H200.567ZM198.047 251.376V250.376H197.047V251.376H198.047ZM198.047 255V256H199.047V255H198.047ZM196.055 249.696V250.696H197.055V249.696H196.055ZM196.055 240.456V239.456H195.055V240.456H196.055ZM196.631 240.456L197.456 241.021L198.529 239.456H196.631V240.456ZM189.935 250.224H188.935V253.451L190.76 250.789L189.935 250.224ZM189.935 249.696V248.696H188.935V249.696H189.935ZM197.055 255V251.376H195.055V255H197.055ZM196.055 250.376H188.255V252.376H196.055V250.376ZM189.255 251.376V249.888H187.255V251.376H189.255ZM189.078 250.455L197.214 238.647L195.567 237.513L187.431 249.321L189.078 250.455ZM196.391 239.08H198.047V237.08H196.391V239.08ZM197.047 238.08V249.696H199.047V238.08H197.047ZM198.047 250.696H200.567V248.696H198.047V250.696ZM199.567 249.696V251.376H201.567V249.696H199.567ZM200.567 250.376H198.047V252.376H200.567V250.376ZM197.047 251.376V255H199.047V251.376H197.047ZM198.047 254H196.055V256H198.047V254ZM197.055 249.696V240.456H195.055V249.696H197.055ZM196.055 241.456H196.631V239.456H196.055V241.456ZM195.806 239.891L189.11 249.659L190.76 250.789L197.456 241.021L195.806 239.891ZM190.935 250.224V249.696H188.935V250.224H190.935ZM189.935 250.696H196.055V248.696H189.935V250.696ZM207.085 254.976L206.859 255.95L207.085 254.976ZM205.141 254.28L204.685 255.17L204.694 255.174L205.141 254.28ZM203.557 253.2L202.655 252.77L202.333 253.445L202.89 253.945L203.557 253.2ZM204.301 251.64L204.932 250.864L203.946 250.063L203.399 251.21L204.301 251.64ZM206.629 253.032L206.268 253.964L206.279 253.969L206.291 253.973L206.629 253.032ZM211.933 252.48L211.235 251.764L211.226 251.773L211.933 252.48ZM207.181 246.624L207.647 247.509L207.655 247.504L207.181 246.624ZM205.525 248.136V249.136H206.037L206.337 248.721L205.525 248.136ZM204.085 248.136H203.085V249.136H204.085V248.136ZM204.085 238.08V237.08H203.085V238.08H204.085ZM213.901 238.08H214.901V237.08H213.901V238.08ZM213.901 239.76V240.76H214.901V239.76H213.901ZM206.029 239.76V238.76H205.029V239.76H206.029ZM206.029 246.504V247.504H207.029V246.504H206.029ZM205.501 246.504L204.651 245.978L203.706 247.504H205.501V246.504ZM207.229 244.968L207.661 245.87L207.669 245.866L207.677 245.862L207.229 244.968ZM212.461 245.088L211.957 245.952L211.965 245.956L212.461 245.088ZM214.261 246.984L213.37 247.438L213.376 247.449L213.381 247.459L214.261 246.984ZM214.213 252.6L215.083 253.094V253.094L214.213 252.6ZM212.245 254.52L211.765 253.643L212.245 254.52ZM209.197 254.216C208.552 254.216 207.924 254.144 207.312 254.002L206.859 255.95C207.623 256.128 208.403 256.216 209.197 256.216V254.216ZM207.312 254.002C206.697 253.859 206.124 253.653 205.589 253.386L204.694 255.174C205.375 255.515 206.097 255.773 206.859 255.95L207.312 254.002ZM205.598 253.39C205.077 253.123 204.621 252.811 204.225 252.455L202.89 253.945C203.422 254.421 204.022 254.829 204.685 255.17L205.598 253.39ZM204.46 253.63L205.204 252.07L203.399 251.21L202.655 252.77L204.46 253.63ZM203.671 252.416C204.506 253.095 205.371 253.617 206.268 253.964L206.991 252.1C206.32 251.839 205.633 251.433 204.932 250.864L203.671 252.416ZM206.291 253.973C207.205 254.302 208.168 254.464 209.173 254.464V252.464C208.387 252.464 207.654 252.338 206.968 252.091L206.291 253.973ZM209.173 254.464C210.546 254.464 211.749 254.079 212.64 253.187L211.226 251.773C210.806 252.193 210.169 252.464 209.173 252.464V254.464ZM212.632 253.196C213.525 252.324 213.941 251.188 213.941 249.888H211.941C211.941 250.732 211.686 251.324 211.235 251.764L212.632 253.196ZM213.941 249.888C213.941 248.578 213.555 247.421 212.721 246.503L211.241 247.849C211.688 248.339 211.941 248.99 211.941 249.888H213.941ZM212.721 246.503C211.858 245.554 210.689 245.12 209.341 245.12V247.12C210.234 247.12 210.825 247.39 211.241 247.849L212.721 246.503ZM209.341 245.12C208.385 245.12 207.498 245.318 206.707 245.744L207.655 247.504C208.113 247.258 208.666 247.12 209.341 247.12V245.12ZM206.716 245.739C205.942 246.146 205.28 246.767 204.714 247.551L206.337 248.721C206.763 248.129 207.204 247.742 207.647 247.509L206.716 245.739ZM205.525 247.136H204.085V249.136H205.525V247.136ZM205.085 248.136V238.08H203.085V248.136H205.085ZM204.085 239.08H213.901V237.08H204.085V239.08ZM212.901 238.08V239.76H214.901V238.08H212.901ZM213.901 238.76H206.029V240.76H213.901V238.76ZM205.029 239.76V246.504H207.029V239.76H205.029ZM206.029 245.504H205.501V247.504H206.029V245.504ZM206.352 247.03C206.663 246.527 207.092 246.142 207.661 245.87L206.798 244.066C205.895 244.498 205.171 245.137 204.651 245.978L206.352 247.03ZM207.677 245.862C208.259 245.571 208.928 245.416 209.701 245.416V243.416C208.651 243.416 207.671 243.629 206.782 244.074L207.677 245.862ZM209.701 245.416C210.633 245.416 211.371 245.61 211.957 245.952L212.965 244.224C212.016 243.67 210.914 243.416 209.701 243.416V245.416ZM211.965 245.956C212.578 246.306 213.042 246.793 213.37 247.438L215.152 246.53C214.649 245.543 213.913 244.766 212.957 244.22L211.965 245.956ZM213.381 247.459C213.722 248.089 213.909 248.856 213.909 249.792H215.909C215.909 248.584 215.665 247.479 215.141 246.509L213.381 247.459ZM213.909 249.792C213.909 250.697 213.712 251.458 213.344 252.106L215.083 253.094C215.643 252.11 215.909 250.999 215.909 249.792H213.909ZM213.344 252.106C212.975 252.755 212.456 253.265 211.765 253.643L212.725 255.397C213.731 254.847 214.524 254.077 215.083 253.094L213.344 252.106ZM211.765 253.643C211.094 254.01 210.251 254.216 209.197 254.216V256.216C210.512 256.216 211.701 255.958 212.725 255.397L211.765 253.643ZM220.636 254.256L220.059 255.073L220.067 255.078L220.075 255.084L220.636 254.256ZM218.524 251.424L217.592 251.787L218.524 251.424ZM218.596 242.016L217.667 241.645L217.665 241.65L218.596 242.016ZM220.948 238.92L220.387 238.092L220.381 238.096L220.948 238.92ZM226.396 238.128L226.111 239.087L226.123 239.09L226.135 239.093L226.396 238.128ZM228.052 238.824L227.541 239.684L227.553 239.691L228.052 238.824ZM229.396 239.904L230.301 240.328L230.58 239.734L230.145 239.241L229.396 239.904ZM228.676 241.44L227.951 242.128L228.959 243.192L229.581 241.864L228.676 241.44ZM226.732 240.072L226.328 240.987L226.34 240.992L226.353 240.998L226.732 240.072ZM222.508 240.048L222.08 239.144L222.071 239.149L222.508 240.048ZM220.972 241.368L220.164 240.779L220.161 240.783L220.972 241.368ZM220.036 243.552L221.008 243.786L221.009 243.782L220.036 243.552ZM219.724 248.808V249.808H220.724V248.808H219.724ZM219.508 248.808L218.513 248.703L218.397 249.808H219.508V248.808ZM220.3 246.456L219.468 245.901L219.465 245.906L220.3 246.456ZM222.004 244.92L222.459 245.81L222.004 244.92ZM226.972 245.064L227.476 244.2L226.972 245.064ZM228.772 246.96L227.888 247.428L227.892 247.435L228.772 246.96ZM228.748 252.552L229.628 253.026L228.748 252.552ZM226.852 254.52L227.346 255.389L227.353 255.386L227.359 255.382L226.852 254.52ZM225.796 253.08L226.284 253.953L226.293 253.948L226.303 253.942L225.796 253.08ZM227.068 251.76L227.947 252.237L227.952 252.227L227.068 251.76ZM225.796 246.528L225.278 247.383L225.289 247.39L225.796 246.528ZM220.78 247.848L219.901 247.371V247.371L220.78 247.848ZM220.78 251.76L219.896 252.227L219.901 252.237L220.78 251.76ZM222.052 253.08L221.545 253.942L221.554 253.948L221.564 253.953L222.052 253.08ZM224.068 254.216C222.888 254.216 221.948 253.937 221.197 253.428L220.075 255.084C221.212 255.855 222.56 256.216 224.068 256.216V254.216ZM221.213 253.439C220.47 252.914 219.876 252.141 219.456 251.061L217.592 251.787C218.131 253.171 218.946 254.286 220.059 255.073L221.213 253.439ZM219.456 251.061C219.033 249.975 218.804 248.617 218.804 246.96H216.804C216.804 248.791 217.055 250.409 217.592 251.787L219.456 251.061ZM218.804 246.96C218.804 245.092 219.057 243.576 219.527 242.382L217.665 241.65C217.078 243.144 216.804 244.924 216.804 246.96H218.804ZM219.524 242.387C220.008 241.177 220.681 240.317 221.515 239.744L220.381 238.096C219.167 238.931 218.271 240.135 217.667 241.645L219.524 242.387ZM221.509 239.748C222.362 239.171 223.392 238.864 224.644 238.864V236.864C223.048 236.864 221.614 237.261 220.387 238.092L221.509 239.748ZM224.644 238.864C225.117 238.864 225.605 238.936 226.111 239.087L226.681 237.169C226.003 236.968 225.323 236.864 224.644 236.864V238.864ZM226.135 239.093C226.642 239.23 227.11 239.428 227.541 239.684L228.563 237.964C227.97 237.612 227.334 237.346 226.657 237.163L226.135 239.093ZM227.553 239.691C227.996 239.946 228.357 240.239 228.647 240.567L230.145 239.241C229.699 238.737 229.164 238.31 228.551 237.957L227.553 239.691ZM228.491 239.48L227.771 241.016L229.581 241.864L230.301 240.328L228.491 239.48ZM229.401 240.752C228.725 240.038 227.962 239.495 227.111 239.146L226.353 240.998C226.91 241.225 227.443 241.594 227.951 242.128L229.401 240.752ZM227.136 239.157C226.324 238.798 225.474 238.616 224.596 238.616V240.616C225.19 240.616 225.764 240.738 226.328 240.987L227.136 239.157ZM224.596 238.616C223.688 238.616 222.842 238.783 222.08 239.144L222.936 240.952C223.39 240.737 223.936 240.616 224.596 240.616V238.616ZM222.071 239.149C221.316 239.516 220.681 240.07 220.164 240.779L221.78 241.957C222.127 241.482 222.516 241.156 222.945 240.947L222.071 239.149ZM220.161 240.783C219.65 241.49 219.293 242.347 219.063 243.322L221.009 243.782C221.195 242.997 221.462 242.398 221.783 241.953L220.161 240.783ZM219.064 243.318C218.833 244.277 218.724 245.367 218.724 246.576H220.724C220.724 245.481 220.823 244.555 221.008 243.786L219.064 243.318ZM218.724 246.576V248.808H220.724V246.576H218.724ZM219.724 247.808H219.508V249.808H219.724V247.808ZM220.502 248.913C220.585 248.133 220.805 247.508 221.135 247.006L219.465 245.906C218.931 246.716 218.623 247.659 218.513 248.703L220.502 248.913ZM221.132 247.011C221.49 246.474 221.931 246.081 222.459 245.81L221.548 244.03C220.701 244.463 220.006 245.094 219.468 245.901L221.132 247.011ZM222.459 245.81C222.991 245.539 223.607 245.392 224.332 245.392V243.392C223.329 243.392 222.393 243.597 221.548 244.03L222.459 245.81ZM224.332 245.392C225.168 245.392 225.87 245.579 226.468 245.928L227.476 244.2C226.538 243.653 225.48 243.392 224.332 243.392V245.392ZM226.468 245.928C227.069 246.278 227.54 246.77 227.888 247.428L229.656 246.492C229.14 245.518 228.411 244.746 227.476 244.2L226.468 245.928ZM227.892 247.435C228.235 248.069 228.42 248.822 228.42 249.72H230.42C230.42 248.538 230.173 247.451 229.652 246.485L227.892 247.435ZM228.42 249.72C228.42 250.63 228.228 251.408 227.868 252.078L229.628 253.026C230.164 252.032 230.42 250.922 230.42 249.72H228.42ZM227.868 252.078C227.506 252.749 227.004 253.271 226.345 253.658L227.359 255.382C228.332 254.809 229.094 254.019 229.628 253.026L227.868 252.078ZM226.358 253.651C225.708 254.02 224.954 254.216 224.068 254.216V256.216C225.262 256.216 226.364 255.948 227.346 255.389L226.358 253.651ZM223.924 254.536C224.776 254.536 225.572 254.351 226.284 253.953L225.308 252.207C224.932 252.417 224.48 252.536 223.924 252.536V254.536ZM226.303 253.942C227.005 253.529 227.557 252.955 227.947 252.237L226.189 251.283C225.971 251.685 225.675 251.991 225.289 252.218L226.303 253.942ZM227.952 252.227C228.342 251.489 228.524 250.669 228.524 249.792H226.524C226.524 250.387 226.402 250.879 226.184 251.293L227.952 252.227ZM228.524 249.792C228.524 248.915 228.342 248.099 227.947 247.371L226.189 248.325C226.402 248.717 226.524 249.197 226.524 249.792H228.524ZM227.947 247.371C227.557 246.653 227.005 246.079 226.303 245.666L225.289 247.39C225.675 247.617 225.971 247.923 226.189 248.325L227.947 247.371ZM226.314 245.673C225.606 245.243 224.796 245.048 223.924 245.048V247.048C224.492 247.048 224.93 247.173 225.278 247.383L226.314 245.673ZM223.924 245.048C223.063 245.048 222.26 245.246 221.545 245.666L222.559 247.39C222.932 247.17 223.377 247.048 223.924 247.048V245.048ZM221.545 245.666C220.843 246.079 220.291 246.653 219.901 247.371L221.659 248.325C221.877 247.923 222.173 247.617 222.559 247.39L221.545 245.666ZM219.901 247.371C219.506 248.099 219.324 248.915 219.324 249.792H221.324C221.324 249.197 221.446 248.717 221.659 248.325L219.901 247.371ZM219.324 249.792C219.324 250.669 219.506 251.489 219.896 252.227L221.664 251.293C221.446 250.879 221.324 250.387 221.324 249.792H219.324ZM219.901 252.237C220.291 252.955 220.843 253.529 221.545 253.942L222.559 252.218C222.173 251.991 221.877 251.685 221.659 251.283L219.901 252.237ZM221.564 253.953C222.276 254.351 223.072 254.536 223.924 254.536V252.536C223.368 252.536 222.916 252.417 222.54 252.207L221.564 253.953ZM233.587 255L232.698 254.541L231.945 256H233.587V255ZM241.891 238.92H242.891L241.002 238.461L241.891 238.92ZM241.891 239.784V240.784H242.891V239.784H241.891ZM232.507 239.784H231.507V240.784H232.507V239.784ZM232.507 238.08V237.08H231.507V238.08H232.507ZM243.691 238.08H244.691V237.08H243.691V238.08ZM243.691 239.568L244.58 240.025L244.691 239.81V239.568H243.691ZM235.771 255V256H236.381L236.66 255.457L235.771 255ZM234.475 255.459L242.779 239.379L241.002 238.461L232.698 254.541L234.475 255.459ZM240.891 238.92V239.784H242.891V238.92H240.891ZM241.891 238.784H232.507V240.784H241.891V238.784ZM233.507 239.784V238.08H231.507V239.784H233.507ZM232.507 239.08H243.691V237.08H232.507V239.08ZM242.691 238.08V239.568H244.691V238.08H242.691ZM242.801 239.111L234.881 254.543L236.66 255.457L244.58 240.025L242.801 239.111ZM235.771 254H233.587V256H235.771V254ZM248.289 253.992L247.67 254.778L247.678 254.783L248.289 253.992ZM247.185 248.424L248.07 248.89L248.075 248.88L247.185 248.424ZM248.529 246.912L249.084 247.744V247.744L248.529 246.912ZM250.521 246.192H251.521V245.056L250.395 245.2L250.521 246.192ZM250.521 246.552L250.295 247.526L251.521 247.811V246.552H250.521ZM248.721 245.736L248.106 246.524L248.113 246.53L248.121 246.536L248.721 245.736ZM247.521 244.272L246.617 244.699L246.622 244.709L246.627 244.719L247.521 244.272ZM248.625 239.064L249.239 239.853L249.241 239.852L248.625 239.064ZM256.833 239.064L256.212 239.847L256.218 239.853L256.225 239.858L256.833 239.064ZM257.937 244.296L257.038 243.859L257.033 243.869L257.937 244.296ZM256.761 245.736L257.361 246.536L256.761 245.736ZM254.961 246.528H253.961V247.759L255.166 247.507L254.961 246.528ZM254.961 246.192L255.088 245.2L253.961 245.056V246.192H254.961ZM256.929 246.936L256.348 247.75L256.361 247.759L256.375 247.768L256.929 246.936ZM258.273 248.424L259.158 247.958L258.273 248.424ZM257.169 253.992L257.781 254.783L257.788 254.777L257.169 253.992ZM255.801 252.792L255.201 251.992L255.192 251.999L255.801 252.792ZM255.801 248.04L255.192 248.833L255.203 248.841L255.213 248.849L255.801 248.04ZM249.657 248.04L250.245 248.849L250.251 248.844L250.257 248.84L249.657 248.04ZM249.657 252.792L250.257 251.992L249.657 252.792ZM255.489 244.8L256.128 245.57L255.489 244.8ZM255.489 240.312L254.851 241.082L254.857 241.086L254.862 241.091L255.489 240.312ZM249.993 240.312L250.62 241.091L250.626 241.086L250.632 241.082L249.993 240.312ZM249.993 244.8L249.355 245.57L249.993 244.8ZM252.729 254.216C250.955 254.216 249.721 253.834 248.901 253.201L247.678 254.783C248.97 255.782 250.696 256.216 252.729 256.216V254.216ZM248.908 253.207C248.121 252.586 247.705 251.731 247.705 250.512H245.705C245.705 252.269 246.346 253.734 247.67 254.777L248.908 253.207ZM247.705 250.512C247.705 249.867 247.836 249.335 248.07 248.89L246.3 247.958C245.895 248.729 245.705 249.589 245.705 250.512H247.705ZM248.075 248.88C248.318 248.406 248.652 248.032 249.084 247.744L247.975 246.08C247.255 246.56 246.692 247.194 246.295 247.968L248.075 248.88ZM249.084 247.744C249.52 247.454 250.034 247.262 250.648 247.184L250.395 245.2C249.504 245.314 248.691 245.602 247.975 246.08L249.084 247.744ZM249.521 246.192V246.552H251.521V246.192H249.521ZM250.748 245.578C250.181 245.446 249.711 245.228 249.321 244.936L248.121 246.536C248.755 247.012 249.486 247.338 250.295 247.526L250.748 245.578ZM249.337 244.948C248.941 244.639 248.637 244.267 248.416 243.825L246.627 244.719C246.982 245.429 247.478 246.033 248.106 246.524L249.337 244.948ZM248.425 243.845C248.221 243.413 248.113 242.928 248.113 242.376H246.113C246.113 243.2 246.277 243.979 246.617 244.699L248.425 243.845ZM248.113 242.376C248.113 241.22 248.505 240.424 249.239 239.853L248.011 238.275C246.729 239.272 246.113 240.684 246.113 242.376H248.113ZM249.241 239.852C250.04 239.227 251.169 238.864 252.729 238.864V236.864C250.865 236.864 249.258 237.301 248.01 238.276L249.241 239.852ZM252.729 238.864C254.309 238.864 255.433 239.229 256.212 239.847L257.455 238.281C256.218 237.299 254.606 236.864 252.729 236.864V238.864ZM256.225 239.858C256.974 240.431 257.369 241.226 257.369 242.376H259.369C259.369 240.678 258.74 239.265 257.441 238.27L256.225 239.858ZM257.369 242.376C257.369 242.919 257.257 243.409 257.038 243.859L258.836 244.733C259.194 243.999 259.369 243.209 259.369 242.376H257.369ZM257.033 243.869C256.831 244.297 256.544 244.649 256.161 244.936L257.361 246.536C258.003 246.055 258.5 245.447 258.841 244.723L257.033 243.869ZM256.161 244.936C255.777 245.224 255.315 245.432 254.756 245.549L255.166 247.507C255.983 247.336 256.721 247.016 257.361 246.536L256.161 244.936ZM255.961 246.528V246.192H253.961V246.528H255.961ZM254.835 247.184C255.44 247.261 255.936 247.455 256.348 247.75L257.51 246.122C256.803 245.617 255.987 245.315 255.088 245.2L254.835 247.184ZM256.375 247.768C256.813 248.06 257.147 248.431 257.388 248.89L259.158 247.958C258.76 247.201 258.198 246.58 257.484 246.104L256.375 247.768ZM257.388 248.89C257.623 249.335 257.753 249.867 257.753 250.512H259.753C259.753 249.589 259.564 248.729 259.158 247.958L257.388 248.89ZM257.753 250.512C257.753 251.731 257.338 252.586 256.55 253.207L257.788 254.777C259.113 253.734 259.753 252.269 259.753 250.512H257.753ZM256.558 253.201C255.738 253.834 254.504 254.216 252.729 254.216V256.216C254.763 256.216 256.489 255.782 257.781 254.783L256.558 253.201ZM252.729 254.584C254.192 254.584 255.473 254.304 256.41 253.585L255.192 251.999C254.753 252.336 253.986 252.584 252.729 252.584V254.584ZM256.401 253.592C257.413 252.833 257.857 251.702 257.857 250.392H255.857C255.857 251.226 255.598 251.695 255.201 251.992L256.401 253.592ZM257.857 250.392C257.857 249.093 257.409 247.972 256.389 247.231L255.213 248.849C255.602 249.132 255.857 249.579 255.857 250.392H257.857ZM256.41 247.247C255.473 246.528 254.192 246.248 252.729 246.248V248.248C253.986 248.248 254.753 248.496 255.192 248.833L256.41 247.247ZM252.729 246.248C251.277 246.248 250.004 246.53 249.057 247.24L250.257 248.84C250.718 248.494 251.494 248.248 252.729 248.248V246.248ZM249.069 247.231C248.05 247.972 247.601 249.093 247.601 250.392H249.601C249.601 249.579 249.857 249.132 250.245 248.849L249.069 247.231ZM247.601 250.392C247.601 251.702 248.046 252.833 249.057 253.592L250.257 251.992C249.861 251.695 249.601 251.226 249.601 250.392H247.601ZM249.057 253.592C250.004 254.302 251.277 254.584 252.729 254.584V252.584C251.494 252.584 250.718 252.338 250.257 251.992L249.057 253.592ZM252.729 246.616C254.056 246.616 255.233 246.311 256.128 245.57L254.851 244.03C254.433 244.377 253.77 244.616 252.729 244.616V246.616ZM256.128 245.57C257.043 244.81 257.473 243.759 257.473 242.544H255.473C255.473 243.249 255.247 243.702 254.851 244.03L256.128 245.57ZM257.473 242.544C257.473 241.329 257.043 240.279 256.116 239.533L254.862 241.091C255.247 241.401 255.473 241.839 255.473 242.544H257.473ZM256.128 239.542C255.233 238.801 254.056 238.496 252.729 238.496V240.496C253.77 240.496 254.433 240.735 254.851 241.082L256.128 239.542ZM252.729 238.496C251.414 238.496 250.247 238.802 249.355 239.542L250.632 241.082C251.051 240.734 251.708 240.496 252.729 240.496V238.496ZM249.366 239.533C248.439 240.279 248.009 241.329 248.009 242.544H250.009C250.009 241.839 250.235 241.401 250.62 241.091L249.366 239.533ZM248.009 242.544C248.009 243.759 248.439 244.81 249.355 245.57L250.632 244.03C250.235 243.702 250.009 243.249 250.009 242.544H248.009ZM249.355 245.57C250.247 246.31 251.414 246.616 252.729 246.616V244.616C251.708 244.616 251.051 244.378 250.632 244.03L249.355 245.57ZM264.456 254.976L264.171 255.935L264.183 255.938L264.195 255.941L264.456 254.976ZM262.776 254.256L262.265 255.116L262.277 255.123L262.776 254.256ZM261.432 253.176L260.529 252.746L260.238 253.357L260.697 253.854L261.432 253.176ZM262.176 251.616L262.911 250.938L261.909 249.853L261.273 251.186L262.176 251.616ZM268.32 253.032L267.892 252.128L268.32 253.032ZM269.856 251.736L270.667 252.322L270.674 252.311L269.856 251.736ZM270.792 249.552L269.823 249.305L269.82 249.318L270.792 249.552ZM271.128 244.272V243.272H270.128V244.272H271.128ZM271.32 244.272L272.314 244.379L272.433 243.272H271.32V244.272ZM270.504 246.624L269.672 246.069L269.667 246.076L269.663 246.083L270.504 246.624ZM268.824 248.16L268.368 247.27L268.824 248.16ZM263.856 248.016L263.344 248.875L263.352 248.88L263.856 248.016ZM262.056 246.12L261.172 246.588L261.176 246.595L261.179 246.601L262.056 246.12ZM262.08 240.528L261.206 240.041L261.203 240.047L262.08 240.528ZM263.976 238.584L264.478 239.449L264.483 239.446L263.976 238.584ZM270.168 238.848L269.591 239.665L269.599 239.67L269.607 239.676L270.168 238.848ZM272.304 241.656L273.236 241.293V241.293L272.304 241.656ZM272.208 251.064L271.279 250.693L271.276 250.702L272.208 251.064ZM269.88 254.16L269.313 253.336L269.307 253.34L269.88 254.16ZM268.8 246.552L268.293 245.69L268.8 246.552ZM270.072 245.232L270.951 245.709L270.072 245.232ZM270.072 241.32L270.951 240.843L270.072 241.32ZM268.8 240L268.293 240.862V240.862L268.8 240ZM265.032 240L264.525 239.138L264.514 239.145L265.032 240ZM263.76 241.32L262.892 240.824L262.886 240.833L262.881 240.843L263.76 241.32ZM263.76 245.232L262.881 245.709L262.886 245.719L262.892 245.728L263.76 245.232ZM265.032 246.552L264.514 247.407L264.525 247.414L265.032 246.552ZM266.208 254.216C265.725 254.216 265.229 254.149 264.717 254.011L264.195 255.941C264.867 256.123 265.538 256.216 266.208 256.216V254.216ZM264.741 254.017C264.222 253.863 263.734 253.654 263.275 253.389L262.277 255.123C262.873 255.466 263.505 255.737 264.171 255.935L264.741 254.017ZM263.286 253.396C262.853 253.139 262.482 252.839 262.167 252.498L260.697 253.854C261.15 254.345 261.674 254.765 262.265 255.116L263.286 253.396ZM262.334 253.606L263.078 252.046L261.273 251.186L260.529 252.746L262.334 253.606ZM261.441 252.294C262.102 253.01 262.854 253.561 263.699 253.926L264.492 252.09C263.93 251.847 263.402 251.47 262.911 250.938L261.441 252.294ZM263.699 253.926C264.52 254.281 265.367 254.464 266.232 254.464V252.464C265.657 252.464 265.079 252.343 264.492 252.09L263.699 253.926ZM266.232 254.464C267.14 254.464 267.986 254.297 268.748 253.936L267.892 252.128C267.438 252.343 266.892 252.464 266.232 252.464V254.464ZM268.748 253.936C269.517 253.572 270.158 253.026 270.667 252.321L269.045 251.151C268.722 251.598 268.339 251.916 267.892 252.128L268.748 253.936ZM270.674 252.311C271.177 251.595 271.533 250.745 271.764 249.786L269.82 249.318C269.635 250.087 269.367 250.693 269.038 251.161L270.674 252.311ZM271.761 249.799C272.01 248.82 272.128 247.718 272.128 246.504H270.128C270.128 247.594 270.022 248.524 269.823 249.305L271.761 249.799ZM272.128 246.504V244.272H270.128V246.504H272.128ZM271.128 245.272H271.32V243.272H271.128V245.272ZM270.326 244.165C270.245 244.92 270.02 245.546 269.672 246.069L271.336 247.179C271.883 246.358 272.203 245.416 272.314 244.379L270.326 244.165ZM269.663 246.083C269.323 246.612 268.894 247.001 268.368 247.27L269.279 249.05C270.13 248.615 270.821 247.98 271.345 247.165L269.663 246.083ZM268.368 247.27C267.837 247.541 267.22 247.688 266.496 247.688V249.688C267.499 249.688 268.434 249.483 269.279 249.05L268.368 247.27ZM266.496 247.688C265.66 247.688 264.958 247.501 264.36 247.152L263.352 248.88C264.29 249.427 265.348 249.688 266.496 249.688V247.688ZM264.368 247.157C263.779 246.806 263.3 246.309 262.932 245.639L261.179 246.601C261.707 247.563 262.429 248.33 263.344 248.875L264.368 247.157ZM262.94 245.652C262.592 244.995 262.408 244.239 262.408 243.36H260.408C260.408 244.529 260.656 245.613 261.172 246.588L262.94 245.652ZM262.408 243.36C262.408 242.431 262.601 241.657 262.956 241.009L261.203 240.047C260.663 241.031 260.408 242.145 260.408 243.36H262.408ZM262.953 241.015C263.332 240.335 263.838 239.82 264.478 239.449L263.474 237.719C262.514 238.276 261.755 239.057 261.206 240.041L262.953 241.015ZM264.483 239.446C265.128 239.066 265.885 238.864 266.784 238.864V236.864C265.571 236.864 264.456 237.142 263.469 237.722L264.483 239.446ZM266.784 238.864C267.941 238.864 268.859 239.147 269.591 239.665L270.745 238.031C269.621 237.237 268.283 236.864 266.784 236.864V238.864ZM269.607 239.676C270.357 240.185 270.954 240.945 271.372 242.019L273.236 241.293C272.694 239.903 271.866 238.791 270.729 238.02L269.607 239.676ZM271.372 242.019C271.795 243.105 272.024 244.463 272.024 246.12H274.024C274.024 244.289 273.773 242.671 273.236 241.293L271.372 242.019ZM272.024 246.12C272.024 247.968 271.764 249.482 271.279 250.693L273.136 251.435C273.74 249.926 274.024 248.144 274.024 246.12H272.024ZM271.276 250.702C270.807 251.908 270.145 252.764 269.313 253.336L270.446 254.984C271.663 254.148 272.552 252.94 273.14 251.426L271.276 250.702ZM269.307 253.34C268.494 253.908 267.479 254.216 266.208 254.216V256.216C267.817 256.216 269.249 255.82 270.452 254.98L269.307 253.34ZM266.928 248.032C267.789 248.032 268.592 247.834 269.307 247.414L268.293 245.69C267.92 245.91 267.475 246.032 266.928 246.032V248.032ZM269.307 247.414C270.009 247.001 270.561 246.427 270.951 245.709L269.193 244.755C268.975 245.157 268.679 245.463 268.293 245.69L269.307 247.414ZM270.951 245.709C271.346 244.981 271.528 244.165 271.528 243.288H269.528C269.528 243.883 269.406 244.363 269.193 244.755L270.951 245.709ZM271.528 243.288C271.528 242.399 271.347 241.574 270.951 240.843L269.193 241.797C269.404 242.186 269.528 242.673 269.528 243.288H271.528ZM270.951 240.843C270.561 240.125 270.009 239.551 269.307 239.138L268.293 240.862C268.679 241.089 268.975 241.395 269.193 241.797L270.951 240.843ZM269.307 239.138C268.592 238.718 267.789 238.52 266.928 238.52V240.52C267.475 240.52 267.92 240.642 268.293 240.862L269.307 239.138ZM266.928 238.52C266.055 238.52 265.243 238.716 264.525 239.138L265.539 240.862C265.909 240.644 266.361 240.52 266.928 240.52V238.52ZM264.514 239.145C263.834 239.557 263.292 240.123 262.892 240.824L264.628 241.816C264.868 241.397 265.174 241.083 265.55 240.855L264.514 239.145ZM262.881 240.843C262.484 241.574 262.304 242.399 262.304 243.288H264.304C264.304 242.673 264.427 242.186 264.639 241.797L262.881 240.843ZM262.304 243.288C262.304 244.165 262.486 244.981 262.881 245.709L264.639 244.755C264.426 244.363 264.304 243.883 264.304 243.288H262.304ZM262.892 245.728C263.292 246.429 263.834 246.995 264.514 247.407L265.55 245.697C265.174 245.469 264.868 245.155 264.628 244.736L262.892 245.728ZM264.525 247.414C265.243 247.836 266.055 248.032 266.928 248.032V246.032C266.361 246.032 265.909 245.908 265.539 245.69L264.525 247.414ZM278.726 254.232L278.12 255.027L278.128 255.033L278.136 255.039L278.726 254.232ZM276.734 251.28L275.789 251.607L276.734 251.28ZM276.734 241.776L277.678 242.106L277.68 242.103L276.734 241.776ZM278.726 238.848L278.136 238.041L278.129 238.046L278.726 238.848ZM287.246 241.752L288.19 241.422V241.422L287.246 241.752ZM287.246 251.28L288.192 251.607L287.246 251.28ZM285.254 254.232L285.852 255.034L285.861 255.027L285.254 254.232ZM284.966 251.808L284.1 251.308L284.095 251.317L284.966 251.808ZM284.99 241.248L284.122 241.744L284.125 241.75L284.99 241.248ZM279.014 241.248L279.877 241.753L279.014 241.248ZM278.99 251.808L278.119 252.299L278.124 252.308L278.99 251.808ZM281.99 254.216C280.889 254.216 280.016 253.937 279.317 253.425L278.136 255.039C279.228 255.839 280.532 256.216 281.99 256.216V254.216ZM279.333 253.437C278.643 252.91 278.079 252.108 277.68 250.953L275.789 251.607C276.286 253.044 277.05 254.21 278.12 255.027L279.333 253.437ZM277.68 250.953C277.278 249.793 277.062 248.327 277.062 246.528H275.062C275.062 248.473 275.294 250.175 275.789 251.607L277.68 250.953ZM277.062 246.528C277.062 244.712 277.279 243.248 277.678 242.106L275.791 241.446C275.294 242.864 275.062 244.568 275.062 246.528H277.062ZM277.68 242.103C278.078 240.949 278.641 240.159 279.324 239.65L278.129 238.046C277.052 238.849 276.286 240.011 275.789 241.449L277.68 242.103ZM279.317 239.655C280.016 239.143 280.889 238.864 281.99 238.864V236.864C280.532 236.864 279.228 237.241 278.136 238.041L279.317 239.655ZM281.99 238.864C283.111 238.864 283.979 239.145 284.657 239.65L285.852 238.046C284.77 237.239 283.462 236.864 281.99 236.864V238.864ZM284.657 239.65C285.343 240.161 285.905 240.946 286.303 242.082L288.19 241.422C287.692 239.998 286.926 238.847 285.852 238.046L284.657 239.65ZM286.303 242.082C286.702 243.224 286.918 244.688 286.918 246.504H288.918C288.918 244.544 288.687 242.84 288.19 241.422L286.303 242.082ZM286.918 246.504C286.918 248.32 286.702 249.794 286.301 250.953L288.192 251.607C288.687 250.174 288.918 248.464 288.918 246.504H286.918ZM286.301 250.953C285.902 252.108 285.338 252.91 284.648 253.437L285.861 255.027C286.931 254.21 287.695 253.044 288.192 251.607L286.301 250.953ZM284.657 253.43C283.979 253.935 283.111 254.216 281.99 254.216V256.216C283.462 256.216 284.77 255.841 285.852 255.034L284.657 253.43ZM281.99 254.512C283.682 254.512 285.014 253.761 285.838 252.299L284.095 251.317C283.639 252.127 282.987 252.512 281.99 252.512V254.512ZM285.832 252.308C286.622 250.94 286.95 248.956 286.95 246.504H284.95C284.95 248.852 284.623 250.404 284.1 251.308L285.832 252.308ZM286.95 246.504C286.95 244.058 286.632 242.086 285.856 240.746L284.125 241.75C284.629 242.618 284.95 244.15 284.95 246.504H286.95ZM285.859 240.752C285.029 239.3 283.685 238.568 281.99 238.568V240.568C283.016 240.568 283.672 240.956 284.122 241.744L285.859 240.752ZM281.99 238.568C280.318 238.568 278.992 239.308 278.152 240.743L279.877 241.753C280.349 240.948 281.007 240.568 281.99 240.568V238.568ZM278.152 240.743C277.358 242.097 277.03 244.069 277.03 246.504H279.03C279.03 244.171 279.359 242.639 279.877 241.753L278.152 240.743ZM277.03 246.504C277.03 248.954 277.35 250.934 278.119 252.299L279.862 251.317C279.351 250.41 279.03 248.854 279.03 246.504H277.03ZM278.124 252.308C278.964 253.763 280.3 254.512 281.99 254.512V252.512C280.993 252.512 280.328 252.125 279.856 251.308L278.124 252.308Z" fill="#65504B" mask="url(#path-4-outside-2_1012_752)"/>
<circle cx="191" cy="75" r="73.5" fill="white" stroke="#65504B" stroke-width="3"/>
<path d="M185.78 60.12C185.063 51.8812 176.468 47.8387 176.105 47.6737C175.764 47.5139 175.383 47.4628 175.013 47.5275C165.091 49.1737 163.598 54.9487 163.538 55.1887C163.457 55.5232 163.47 55.8738 163.576 56.2012C175.411 92.9212 200.007 99.7275 208.092 101.966C208.715 102.139 209.228 102.277 209.618 102.405C210.063 102.55 210.547 102.522 210.972 102.326C211.22 102.214 217.062 99.4612 218.491 90.4837C218.554 90.0918 218.491 89.6899 218.311 89.3362C218.183 89.0887 215.127 83.2725 206.652 81.2175C206.365 81.144 206.063 81.1414 205.775 81.21C205.486 81.2786 205.218 81.4163 204.995 81.6112C202.321 83.895 198.627 86.3287 197.033 86.58C186.35 81.3562 180.383 71.3325 180.158 69.4312C180.027 68.3625 182.476 64.6087 185.292 61.5562C185.469 61.3641 185.604 61.1371 185.688 60.8897C185.772 60.6424 185.803 60.3802 185.78 60.12Z" fill="#916A5E"/>
</svg>
