<svg width="101" height="100" viewBox="0 0 101 100" fill="none" xmlns="http://www.w3.org/2000/svg">
<path d="M87.7969 54.5782C88.2656 54.1719 88.75 53.7501 89.2031 53.3282C99.1094 44.0469 97.2812 26.4688 97.2031 25.7344L97.0781 24.5782L95.9219 24.3594C95.1875 24.2344 77.7656 21.2344 67.7969 30.5001C66.5538 31.682 65.3849 32.9396 64.2969 34.2657C60.7263 31.639 56.4841 30.0786 52.0625 29.7657C52.7321 27.1629 54.1694 24.8218 56.1875 23.0469C56.3518 22.9146 56.4875 22.7504 56.5866 22.5643C56.6858 22.3781 56.7461 22.1737 56.7642 21.9636C56.7822 21.7534 56.7575 21.5418 56.6915 21.3415C56.6255 21.1411 56.5197 20.9562 56.3804 20.7978C56.241 20.6395 56.0711 20.511 55.8807 20.4201C55.6904 20.3292 55.4836 20.2778 55.2729 20.269C55.0621 20.2601 54.8518 20.294 54.6545 20.3687C54.4572 20.4433 54.2771 20.5571 54.125 20.7032C51.5378 22.9726 49.7242 25.9935 48.9375 29.3438C48.9375 29.4844 48.9375 29.6251 48.9375 29.7657C44.5051 30.0728 40.2512 31.6334 36.6719 34.2657C35.5839 32.9396 34.415 31.682 33.1719 30.5001C23.2656 21.2344 5.84374 24.2501 5.04687 24.3594L3.89062 24.5782L3.76562 25.7344C3.76562 26.4688 1.85937 44.0469 11.7656 53.3282C12.2187 53.7501 12.7031 54.1719 13.1719 54.5782C8.79349 57.7941 5.66823 62.4311 4.33046 67.6963C2.9927 72.9615 3.52551 78.5279 5.8378 83.4438C8.1501 88.3596 12.0983 92.3195 17.0072 94.6465C21.9161 96.9734 27.4809 97.5228 32.7501 96.2007C38.0193 94.8786 42.6656 91.7672 45.8945 87.3984C49.1234 83.0296 50.7344 77.6748 50.452 72.2497C50.1697 66.8245 48.0115 61.6659 44.3465 57.6559C40.6815 53.6459 35.7373 51.0336 30.3594 50.2657C31.0047 45.7409 33.1572 41.5659 36.4689 38.4158C39.7806 35.2657 44.0579 33.3246 48.6094 32.9063C48.601 34.0345 48.711 35.1604 48.9375 36.2657C49.0137 36.6211 49.2115 36.9387 49.4966 37.164C49.7818 37.3893 50.1366 37.5082 50.5 37.5001H50.8281C51.0355 37.4613 51.2329 37.3809 51.4084 37.2637C51.5839 37.1466 51.7338 36.9951 51.8491 36.8184C51.9645 36.6417 52.0429 36.4435 52.0795 36.2358C52.1162 36.028 52.1104 35.8149 52.0625 35.6094C51.8661 34.7109 51.7614 33.7948 51.75 32.8751C56.4115 33.1655 60.8306 35.0535 64.2628 38.2211C67.6951 41.3887 69.9309 45.6424 70.5937 50.2657C65.2158 51.0336 60.2716 53.6459 56.6066 57.6559C52.9416 61.6659 50.7834 66.8245 50.5011 72.2497C50.2187 77.6748 51.8297 83.0296 55.0586 87.3984C58.2876 91.7672 62.9338 94.8786 68.203 96.2007C73.4722 97.5228 79.037 96.9734 83.9459 94.6465C88.8549 92.3195 92.803 88.3596 95.1153 83.4438C97.4276 78.5279 97.9604 72.9615 96.6226 67.6963C95.2849 62.4311 92.1596 57.7941 87.7812 54.5782H87.7969ZM47.375 73.4376C47.375 77.455 46.1837 81.3822 43.9517 84.7226C41.7198 88.063 38.5474 90.6665 34.8358 92.2039C31.1241 93.7413 27.04 94.1435 23.0997 93.3598C19.1595 92.576 15.5401 90.6414 12.6994 87.8007C9.85863 84.9599 7.92405 81.3406 7.14029 77.4003C6.35653 73.4601 6.75878 69.3759 8.29619 65.6643C9.83359 61.9527 12.4371 58.7803 15.7775 56.5483C19.1178 54.3164 23.0451 53.1251 27.0625 53.1251C29.73 53.1251 32.3713 53.6505 34.8358 54.6713C37.3002 55.6921 39.5394 57.1883 41.4256 59.0745C43.3118 60.9607 44.808 63.1999 45.8288 65.6643C46.8496 68.1287 47.375 70.7701 47.375 73.4376ZM27.0625 50.0001C23.1895 49.9951 19.3765 50.9564 15.9687 52.797C15.2812 52.2344 14.5937 51.6563 13.9375 51.0469C6.54687 44.1407 6.60937 31.2501 6.74999 27.2813C10.7031 26.7969 23.5625 25.8751 30.9531 32.7813C32.1038 33.8788 33.1841 35.0478 34.1875 36.2813C31.4382 38.9324 29.3785 42.2151 28.1875 45.8438L25.5 43.1094V32.8126C25.5 32.3982 25.3354 32.0007 25.0423 31.7077C24.7493 31.4147 24.3519 31.2501 23.9375 31.2501C23.5231 31.2501 23.1257 31.4147 22.8326 31.7077C22.5396 32.0007 22.375 32.3982 22.375 32.8126V39.9844L14.1094 31.7032C13.8151 31.409 13.4161 31.2437 13 31.2437C12.5839 31.2437 12.1848 31.409 11.8906 31.7032C11.5964 31.9974 11.4311 32.3965 11.4311 32.8126C11.4311 33.2287 11.5964 33.6277 11.8906 33.9219L20.1719 42.1876H13C12.5856 42.1876 12.1882 42.3522 11.8951 42.6452C11.6021 42.9382 11.4375 43.3357 11.4375 43.7501C11.4375 44.1645 11.6021 44.5619 11.8951 44.8549C12.1882 45.148 12.5856 45.3126 13 45.3126H23.2969L27.375 49.3907C27.375 49.5938 27.375 49.8126 27.2969 50.0157L27.0625 50.0001ZM73.625 49.3907L77.7031 45.3126H88C88.4144 45.3126 88.8118 45.148 89.1049 44.8549C89.3979 44.5619 89.5625 44.1645 89.5625 43.7501C89.5625 43.3357 89.3979 42.9382 89.1049 42.6452C88.8118 42.3522 88.4144 42.1876 88 42.1876H80.8281L89.1094 33.9219C89.4036 33.6277 89.5689 33.2287 89.5689 32.8126C89.5689 32.3965 89.4036 31.9974 89.1094 31.7032C88.8151 31.409 88.4161 31.2437 88 31.2437C87.5839 31.2437 87.1848 31.409 86.8906 31.7032L78.625 39.9844V32.8126C78.625 32.3982 78.4604 32.0007 78.1674 31.7077C77.8743 31.4147 77.4769 31.2501 77.0625 31.2501C76.6481 31.2501 76.2507 31.4147 75.9576 31.7077C75.6646 32.0007 75.5 32.3982 75.5 32.8126V43.1094L72.75 45.8438C71.559 42.2151 69.4992 38.9324 66.75 36.2813C67.7556 35.0546 68.8413 33.8958 70 32.8126C77.375 25.9063 90.3125 26.8282 94.1875 27.3126C94.4062 31.2813 94.4687 44.1563 87.0781 51.0782C86.4062 51.6876 85.7187 52.2657 85.0312 52.8282C81.6264 50.9768 77.8132 50.0047 73.9375 50.0001H73.7031C73.6719 49.8126 73.6719 49.5938 73.625 49.3907ZM73.9375 93.7501C69.9201 93.7501 65.9928 92.5588 62.6525 90.3268C59.3121 88.0948 56.7086 84.9225 55.1712 81.2108C53.6338 77.4992 53.2315 73.415 54.0153 69.4748C54.7991 65.5346 56.7336 61.9152 59.5744 59.0745C62.4151 56.2337 66.0345 54.2991 69.9747 53.5154C73.915 52.7316 77.9991 53.1339 81.7107 54.6713C85.4224 56.2087 88.5948 58.8122 90.8267 62.1526C93.0587 65.4929 94.25 69.4201 94.25 73.4376C94.25 76.105 93.7246 78.7464 92.7038 81.2108C91.683 83.6753 90.1868 85.9145 88.3006 87.8007C86.4144 89.6869 84.1752 91.1831 81.7107 92.2039C79.2463 93.2247 76.605 93.7501 73.9375 93.7501Z" fill="white"/>
<path d="M19.25 60.9375C19.25 61.3519 19.4146 61.7493 19.7076 62.0424C20.0007 62.3354 20.3981 62.5 20.8125 62.5C21.2269 62.5 21.6243 62.3354 21.9174 62.0424C22.2104 61.7493 22.375 61.3519 22.375 60.9375C22.375 60.5469 24.0312 59.375 27.0625 59.375C30.0938 59.375 31.75 60.5469 31.75 60.9375C31.75 61.3281 30.0938 62.5 27.0625 62.5C26.6481 62.5 26.2507 62.6646 25.9576 62.9577C25.6646 63.2507 25.5 63.6481 25.5 64.0625C25.5 64.4769 25.6646 64.8743 25.9576 65.1674C26.2507 65.4604 26.6481 65.625 27.0625 65.625C31.5156 65.625 34.875 63.6094 34.875 60.9375C34.875 58.2656 31.5156 56.25 27.0625 56.25C22.6094 56.25 19.25 58.2656 19.25 60.9375ZM61.4375 68.75C61.5625 68.75 62.2188 69.25 62.6406 70.75C62.6915 70.9509 62.7818 71.1397 62.9064 71.3054C63.0309 71.471 63.1871 71.6103 63.366 71.715C63.5448 71.8196 63.7427 71.8877 63.9482 71.9152C64.1536 71.9427 64.3624 71.929 64.5625 71.875C64.7595 71.8176 64.9432 71.7219 65.1032 71.5934C65.2632 71.4649 65.3964 71.3062 65.495 71.1263C65.5937 70.9464 65.6559 70.7488 65.6782 70.5448C65.7005 70.3409 65.6825 70.1345 65.625 69.9375C64.875 67.1875 63.2969 65.625 61.4375 65.625C58.7656 65.625 56.75 68.9844 56.75 73.4375C56.75 77.8906 58.7656 81.25 61.4375 81.25C63.2969 81.25 64.875 79.6875 65.6406 77C65.7567 76.6022 65.7099 76.1746 65.5106 75.8112C65.3114 75.4479 64.9759 75.1785 64.5781 75.0625C64.1803 74.9465 63.7527 74.9932 63.3893 75.1925C63.026 75.3917 62.7567 75.7272 62.6406 76.125C62.2188 77.6875 61.5625 78.125 61.4375 78.125C61.0469 78.125 59.875 76.4688 59.875 73.4375C59.875 70.4063 61.0469 68.75 61.4375 68.75ZM54.25 37.8125C53.1682 38.6239 51.8523 39.0625 50.5 39.0625C49.1477 39.0625 47.8319 38.6239 46.75 37.8125C46.4185 37.5639 46.0018 37.4571 45.5915 37.5157C45.1813 37.5743 44.8111 37.7935 44.5625 38.125C44.3139 38.4565 44.2071 38.8732 44.2657 39.2835C44.3243 39.6937 44.5435 40.0639 44.875 40.3125C46.4978 41.5296 48.4715 42.1875 50.5 42.1875C52.5285 42.1875 54.5022 41.5296 56.125 40.3125C56.2892 40.1894 56.4274 40.0352 56.532 39.8586C56.6365 39.682 56.7053 39.4866 56.7343 39.2835C56.7633 39.0804 56.752 38.8735 56.7011 38.6747C56.6502 38.476 56.5606 38.2892 56.4375 38.125C56.3144 37.9609 56.1601 37.8226 55.9836 37.718C55.807 37.6135 55.6116 37.5447 55.4085 37.5157C55.2053 37.4867 54.9985 37.498 54.7997 37.5489C54.6009 37.5998 54.4142 37.6894 54.25 37.8125Z" fill="white"/>
</svg>
