<svg width="100" height="100" viewBox="0 0 100 100" fill="none" xmlns="http://www.w3.org/2000/svg">
<path d="M38.6769 54.3013C39.1989 53.9882 39.367 53.3104 39.0532 52.7876C38.7387 52.2663 38.0601 52.094 37.5395 52.4114C34.7728 54.0744 31.5458 54.5182 28.4474 53.6694C27.8615 53.5057 27.254 53.8532 27.0917 54.4392C26.9301 55.0266 27.2755 55.634 27.8629 55.7949C31.5362 56.8087 35.3789 56.2845 38.6769 54.3013Z" fill="white"/>
<path d="M96.2855 68.7172C95.199 65.9455 93.098 63.7626 90.3701 62.5706C83.2026 59.4402 79.521 51.4927 81.6885 44.0111C82.6263 43.5084 83.5086 42.866 84.2989 42.0757C87.616 38.7582 88.3922 33.8558 86.6448 29.787C87.4474 29.1715 88.2318 28.5197 88.9627 27.7777C95.1904 21.4559 96.6998 12.2274 97.0451 7.29002C97.2191 4.80322 95.1494 2.74643 92.6499 2.9601C87.7168 3.37946 78.512 5.02525 72.2843 11.3485C70.6503 13.0071 69.3724 14.8718 68.3292 16.8002C58.0817 13.763 46.8016 15.1503 37.5075 20.9433C36.1224 17.9858 34.2972 15.0908 31.8043 12.5979C24.4579 5.25215 13.6611 3.40529 7.87999 2.95866C5.01528 2.75897 2.73802 5.09791 2.95409 7.88456C3.40144 13.6678 5.24829 24.4646 12.5926 31.8089C14.3863 33.6025 16.394 35.0365 18.4773 36.2285C17.5524 38.6375 17.455 41.3649 18.3849 43.9619C13.7902 42.0288 8.32587 43.3535 5.18079 47.5301C1.48494 52.4388 2.47154 59.4399 7.38093 63.1379C9.44249 64.6897 11.639 65.9844 13.9174 67.0711C13.4586 67.461 12.9958 67.8443 12.5624 68.2778C5.24109 75.5991 3.39999 86.3643 2.95407 92.1289C2.74009 94.8796 4.99032 97.2498 7.86704 97.0418C13.6309 96.5966 24.3939 94.7555 31.7174 87.4327C32.526 86.6242 33.2426 85.7614 33.9197 84.8788C35.4129 85.6231 37.0898 86.0527 38.8686 86.0527C45.1547 86.0527 51.0826 84.5059 56.306 81.787C59.3836 89.0257 65.775 93.9928 69.5571 96.4114C71.6462 97.7485 74.4483 96.9307 75.4617 94.6249C76.749 91.6997 78.4188 86.9561 78.7622 81.6801C79.6379 82.1483 80.5283 82.5948 81.4481 82.9966C87.0915 85.46 93.6673 82.8635 96.1224 77.2435C97.3137 74.5163 97.3719 71.4875 96.2855 68.7172ZM73.8554 12.8966C79.5855 7.07888 88.2073 5.55085 92.8373 5.15735C94.0071 5.06737 94.9242 6.00543 94.845 7.1349C94.5205 11.7693 93.121 20.4133 87.3915 26.2296C86.8131 26.8168 86.1967 27.3436 85.5652 27.8438C85.1925 27.3074 84.7766 26.7921 84.2989 26.3143C83.5794 25.5948 82.8317 24.921 82.0704 24.2715L82.7414 24.2664C83.3503 24.2621 83.84 23.7638 83.8357 23.1548C83.8314 22.5488 83.3381 22.0605 82.7328 22.0605H82.7242L79.6893 22.0833L82.7723 18.9536L88.0148 18.914C88.6237 18.9097 89.1135 18.4113 89.1092 17.8024C89.1041 17.1921 88.5555 16.7311 87.9976 16.7081L84.9618 16.7309L87.3779 14.2782C87.8059 13.8445 87.8001 13.1465 87.3664 12.7185C86.9327 12.2891 86.2333 12.2949 85.8068 12.73L83.3903 15.1832L83.3675 12.1469C83.3632 11.5409 82.8699 11.0526 82.2646 11.0526H82.256C81.6471 11.0569 81.1574 11.5553 81.1617 12.1642L81.2012 17.4054L78.1176 20.5358L78.0948 17.4994C78.0905 16.8933 77.5972 16.405 76.9919 16.405H76.984C76.3744 16.4094 75.8846 16.9077 75.889 17.5166L75.9073 19.9927C74.1432 19.013 72.3191 18.1818 70.45 17.5053C71.3671 15.87 72.4744 14.2985 73.8554 12.8966ZM82.7392 27.8739C86.224 31.3594 86.224 37.0306 82.7392 40.5161C80.7463 42.5086 78.046 43.3157 75.443 43.0195C73.524 39.4014 69.682 36.9453 65.2207 37.0955C64.4905 36.7438 63.7451 36.4259 62.9726 36.1775C61.0269 34.5327 58.9203 33.0669 56.6467 31.8292C58.4957 31.6903 60.3609 31.9903 62.1165 32.7495C62.2594 32.8113 62.4081 32.84 62.5538 32.84C62.9803 32.84 63.3868 32.5916 63.567 32.1751C63.809 31.6164 63.5519 30.9673 62.9925 30.7246C59.8972 29.3853 56.5164 29.2226 53.3379 30.2316C46.6506 27.4006 39.4613 26.5595 32.4681 27.7211C46.3716 13.9646 68.8787 14.0141 82.7392 27.8739ZM52.9983 54.7313C49.641 50.0673 44.2526 47.3032 38.5914 47.3032C36.4409 47.3032 34.2544 47.6981 32.1354 48.5296C29.913 49.4042 27.483 49.3597 25.2951 48.4047C23.1065 47.4511 21.4204 45.7019 20.5473 43.4788C18.7449 38.8918 21.0111 33.6931 25.5988 31.8907C38.0048 27.0122 51.6585 29.5271 61.5331 37.8541C57.3928 39.4825 54.4498 43.5113 54.4498 48.2223C54.4498 50.5481 53.9204 52.7482 52.9983 54.7313ZM14.1523 30.2493C7.30985 23.4062 5.57716 13.1939 5.15279 7.71509C5.04609 6.32941 6.12191 5.15162 7.52096 5.15162C7.58343 5.15162 7.64662 5.15306 7.70981 5.15879C13.1879 5.58102 23.4001 7.31299 30.2447 14.1575C32.6227 16.5358 34.349 19.3253 35.6504 22.1775C33.9389 23.3912 32.3019 24.7547 30.7696 26.287C30.2675 26.7889 29.8343 27.3318 29.4548 27.9002L27.5584 26.0037V19.7526C27.5584 19.1437 27.0644 18.6497 26.4555 18.6497C25.8466 18.6497 25.3526 19.1437 25.3526 19.7526V23.7977L21.3041 19.7492V13.4969C21.3041 12.888 20.8101 12.394 20.2012 12.394C19.5923 12.394 19.0983 12.888 19.0983 13.4969V17.5433L15.8979 14.3428C15.467 13.912 14.7691 13.912 14.3382 14.3428C13.9074 14.7736 13.9074 15.4716 14.3382 15.9024L17.5393 19.1036H13.4924C12.8834 19.1036 12.3894 19.5976 12.3894 20.2065C12.3894 20.8154 12.8834 21.3094 13.4924 21.3094H19.745L23.7933 25.3579H19.7474C19.1385 25.3579 18.6444 25.8519 18.6444 26.4608C18.6444 27.0697 19.1385 27.5637 19.7474 27.5637H25.9992L27.3743 28.9387C26.5076 29.2099 25.645 29.5018 24.7918 29.8371C22.5015 30.7377 20.6859 32.3232 19.4636 34.2604C17.5785 33.1691 15.7677 31.8647 14.1523 30.2493ZM6.94293 48.8571C9.92179 44.9002 15.5288 44.1297 19.4609 47.0935C22.4923 49.3744 23.0817 49.8463 24.4134 50.4268C27.142 51.6173 30.1708 51.6705 32.9425 50.5833C40.0157 47.804 47.9248 50.6065 51.8163 56.8548C49.0177 61.0173 44.2598 63.764 38.8686 63.764C35.1146 63.764 31.795 65.6351 29.7746 68.4881C22.1949 68.4255 14.8631 66.0107 8.70793 61.3743C4.77007 58.4102 3.97877 52.7949 6.94293 48.8571ZM30.1578 85.8731C23.3363 92.6947 13.1577 94.4209 7.69688 94.8417C6.30009 94.9792 5.03706 93.7921 5.15279 92.2983C5.57574 86.8368 7.30266 76.6575 14.1221 69.8374C14.7678 69.1918 15.4532 68.61 16.1538 68.0558C19.861 69.5365 23.7725 70.4161 27.7764 70.6597L25.9274 72.5086H19.6964C19.0875 72.5086 18.5935 73.0026 18.5935 73.6115C18.5935 74.2204 19.0875 74.7145 19.6964 74.7145H23.7215L19.693 78.7428H13.4622C12.8533 78.7428 12.3593 79.2368 12.3593 79.8457C12.3593 80.4546 12.8533 80.9487 13.4622 80.9487H17.4869L14.303 84.1325C13.8722 84.5634 13.8722 85.2613 14.303 85.6922C14.7339 86.123 15.4318 86.123 15.8627 85.6922L19.0466 82.5084V86.5337C19.0466 87.1426 19.5406 87.6367 20.1495 87.6367C20.7584 87.6367 21.2524 87.1426 21.2524 86.5337V80.3026L25.2808 76.2744V80.2995C25.2808 80.9084 25.7748 81.4025 26.3837 81.4025C26.9926 81.4025 27.4866 80.9084 27.4866 80.2995V74.0686L27.7811 73.7743C27.7432 74.1473 27.7236 74.5255 27.7236 74.9083C27.7236 78.485 29.4243 81.6648 32.0517 83.7053C31.4647 84.4539 30.8457 85.1851 30.1578 85.8731ZM29.9295 74.9083C29.9295 69.9796 33.9399 65.9699 38.8686 65.9699C48.6766 65.9699 56.6557 58.0081 56.6557 48.2223C56.6557 43.2936 60.6661 39.2825 65.5948 39.2825C70.5236 39.2825 74.5332 43.2936 74.5332 48.2223C74.5332 67.7353 58.641 83.8467 38.8686 83.8467C33.9399 83.8468 29.9295 79.8371 29.9295 74.9083ZM73.4425 93.7373C72.986 94.7736 71.7285 95.1807 70.7448 94.553C67.1498 92.2536 61.0434 87.5247 58.2383 80.7133C60.7846 79.1928 63.1351 77.3808 65.25 75.3262L66.1481 78.2954L63.6733 82.9176C63.3854 83.4547 63.5879 84.1239 64.125 84.4112C64.6579 84.6972 65.3285 84.4992 65.6178 83.9602L67.0518 81.2823L68.0485 84.5778C68.2297 85.1766 68.8608 85.4882 69.4235 85.3145C70.0066 85.1379 70.3362 84.5232 70.1596 83.9401L69.1625 80.6439L71.8391 82.0775C72.3769 82.3661 73.044 82.1622 73.332 81.6265C73.6199 81.0894 73.4174 80.4202 72.8803 80.133L68.2592 77.6573L67.0053 73.5117C67.0155 73.5004 67.0249 73.4886 67.0353 73.4772L69.6641 74.8854C69.6749 74.891 69.6866 74.89 69.6973 74.8953C71.7634 77.0004 74.0787 78.8573 76.6078 80.434C76.4767 85.8122 74.7494 90.7662 73.4425 93.7373ZM94.1004 76.3617C92.1279 80.8769 86.8458 82.9463 82.3314 80.9745C77.1089 78.6944 72.635 75.2449 69.1198 70.9516C71.9525 67.199 74.0956 62.9027 75.3775 58.2528C76.0024 59.4451 76.8021 60.5568 77.776 61.551C78.2005 61.9868 78.8997 61.9939 79.3356 61.5682C79.7708 61.1417 79.778 60.4437 79.3514 60.0086C77.7512 58.3733 76.7043 56.367 76.2627 54.1955C76.5731 52.249 76.7391 50.2549 76.7391 48.2223C76.7391 47.2202 76.5941 46.2533 76.3447 45.3287C76.3693 45.3289 76.3935 45.3343 76.4181 45.3343C77.3516 45.3343 78.2829 45.2061 79.1927 44.9736C77.6291 53.0481 81.8092 61.238 89.4869 64.5927C91.6755 65.5477 93.3601 67.2983 94.2318 69.5214C95.1028 71.7446 95.0561 74.173 94.1004 76.3617Z" fill="white"/>
<path d="M42.5623 42.3916C42.5587 42.3916 42.5551 42.3916 42.5516 42.3916C41.947 42.3916 41.4544 42.8784 41.4486 43.4831C41.4429 44.0934 41.9319 44.5917 42.5408 44.5975C45.767 44.6291 48.752 45.9388 50.9464 48.2869C51.1633 48.5195 51.4577 48.6373 51.7521 48.6373C52.0221 48.6373 52.2928 48.5382 52.5053 48.34C52.9505 47.925 52.9735 47.227 52.5577 46.7818C49.9476 43.9886 46.3975 42.4289 42.5623 42.3916ZM57.9475 58.7361C57.3773 58.5063 56.739 58.7806 56.5114 59.345C55.3021 62.3365 52.9907 64.6357 50.0043 65.8176C49.4378 66.0416 49.1606 66.6822 49.3846 67.2494C49.5562 67.6817 49.9713 67.9459 50.41 67.9459C50.5457 67.9459 50.6829 67.9215 50.8157 67.8684C54.3694 66.4624 57.1181 63.7281 58.5564 60.1722C58.7847 59.6078 58.5119 58.9644 57.9475 58.7361Z" fill="white"/>
</svg>
